<svg version="1.1" id="Ebene_1" xmlns="http://www.w3.org/2000/svg" x="0" y="0" viewBox="0 0 1000 680" xml:space="preserve">
  <style>
    .st0{stroke:#f9be02;stroke-width:5;stroke-linecap:round;stroke-miterlimit:10}.st0,.st1{fill:none}.st2{opacity:.4;fill:#02a6d1;enable-background:new}.st3{fill:#17b8e1}.st4{fill:#f9be02}.st5{fill:#b6d7e9}.st7{fill:#132137}.st8{fill:#05719a}.st9{fill:#174772}.st11{fill:#ced8e1}.st12{opacity:.1;fill:#142d48;enable-background:new}.st14{fill:#fff}.st16,.st18{opacity:.1;fill:#174772;enable-background:new}.st18{opacity:.8;fill:#7994ad}.st20{fill:#e6ebef}.st21{fill:#142d48}.st22{opacity:.31;fill:#5799b0;enable-background:new}.st24{fill:#9fb3c5}.st25{fill:#748fa9}.st27,.st28,.st29,.st30{opacity:.3;fill:#fff;enable-background:new}.st28,.st29,.st30{opacity:.6}.st29,.st30{opacity:.2}.st30{fill:#174772}.st32{fill:none;stroke:#fff;stroke-width:3.3133;stroke-linecap:round;stroke-miterlimit:10}.st33,.st35{opacity:.47;fill:#bf8043;enable-background:new}.st35{opacity:.4;fill:#fff}.st36{fill:#02a6d1}.st37{fill:#14314f}.st38{opacity:.57;fill:#132137;enable-background:new}.st39{fill:#b8c6d3}.st41{fill:#152c48}.st45,.st56,.st57{opacity:.49;fill:#05719a;enable-background:new}.st56,.st57{opacity:.2;fill:#748fa9}.st57{opacity:.3;fill:#174772}.st61{fill:#004670}.st63,.st67{opacity:.17;fill:#174772;enable-background:new}.st67{opacity:.1;fill:#004670}.st73{fill:none;stroke:#174772;stroke-width:1.4151;stroke-linecap:round;stroke-miterlimit:10}
  </style>
  <path class="st0" d="M779.1 228.2v171.3"/>
  <path class="st1" d="M0 0h1000v680H0z"/>
  <path class="st2" d="M817.5 564.7l-1.5 14.6h1.1c4.2 0 10.9-4.4 63.9-60.2 14.9-15.9 23.2-36.6 23.2-58.4v-5.5c2.6-6.2 6.8-11.8 12.6-15.7l26.4-17.9c11.6-7.9 18.6-21 18.6-35v-67c7.2-2 12.7-8.7 12.7-16.4 0-9.4-7.7-17.1-17.1-17.1s-17.1 7.7-17.1 17.1c0 8.1 5.7 14.9 13.5 16.6v66.7c0 11.5-5.7 21.9-15.1 28.4l-26.4 17.9c-2.9 2-5.7 4.4-7.9 7v-30c6.6-3.1 11.5-9.8 11.5-17.7 0-10.7-8.7-19.5-19.5-19.5-10.7 0-19.5 8.7-19.5 19.5 0 8.5 5.5 15.7 13.1 18.4v50.4c0 18.1-6.8 35.2-19.3 48.2-47.3 49.7-55.4 55.6-56.5 56.1 0 .1 1.3-.7 3.3-.5zm140.2-252.5c-5 0-9.1-4-9.1-9.1 0-5 4-9.1 9.1-9.1 5 0 9.1 4 9.1 9.1 0 4.9-4.2 9.1-9.1 9.1zM903 391.9c0 3.7-2.9 6.6-6.6 6.6-3.7 0-6.6-2.9-6.6-6.6s2.9-6.6 6.6-6.6 6.6 3.1 6.6 6.6zM186.3 598.2c-1.1-.6-9.2-6.4-56.5-56.1-12.6-13-19.3-30.2-19.3-48.2v-50.4c7.6-2.8 13.1-9.9 13.1-18.4 0-10.8-8.8-19.5-19.5-19.5-10.8 0-19.5 8.8-19.5 19.5 0 7.9 4.9 14.6 11.5 17.7v30c-2.2-2.6-5-5-7.9-7l-26.4-17.9c-9.4-6.5-15.1-17-15.1-28.4v-66.7c7.8-1.7 13.5-8.5 13.5-16.6 0-9.4-7.7-17.1-17.1-17.1S26 326.8 26 336.2c0 7.7 5.6 14.4 12.7 16.4v67c0 14 7 27.1 18.6 35l26.4 17.9c5.8 3.9 10 9.4 12.6 15.7v5.5c0 21.8 8.3 42.5 23.2 58.4 53 55.8 59.7 60.2 63.9 60.2h1.1l-1.5-14.6c1.8-.2 3.1.6 3.3.5zM33.5 336.1c0-5 4.1-9.1 9.1-9.1s9.1 4.1 9.1 9.1-4.1 9.1-9.1 9.1-9.1-4.1-9.1-9.1zm70.3 82.3c3.7 0 6.6 2.9 6.6 6.6s-2.9 6.6-6.6 6.6-6.6-2.9-6.6-6.6c0-3.6 3-6.6 6.6-6.6z"/>
  <path class="st3" d="M151 271.1l47.7-46.7c7.8-7.7 12.4-18.3 12.4-29.3v-51.2c9.6-3 16.7-12 16.7-22.6 0-13.1-10.6-23.7-23.7-23.7s-23.7 10.6-23.7 23.7c0 10.8 7.3 20 17.3 22.8v51.1c0 7.4-3.1 14.6-8.3 19.8l-46.7 45.7v-64.9c9.7-2.9 16.8-11.9 16.8-22.6 0-13.1-10.5-23.6-23.6-23.6s-23.6 10.5-23.6 23.6c0 10.7 7.1 19.8 16.9 22.6V357c-2.6-3.6-5.8-6.9-9.4-9.6l-31-29.1-.3-.3c-9.3-6.7-14.7-17.6-14.7-29v-27.3c6.8-1.7 11.9-7.9 11.9-15.3 0-8.7-7.1-15.8-15.8-15.8s-15.8 7.1-15.8 15.8c0 7.4 5.2 13.7 12.1 15.3V289c0 13.6 6.6 26.7 17.6 34.9l31 29.1.3.3c7.4 5.4 12.3 13.4 14.1 22.1v43c0 10.9 4.2 21.1 12 29l65.8 65.7 9.5-9.5-65.8-65.8c-5.3-5.1-8.2-12-8.2-19.5V290.8c.2-7.4 3.3-14.5 8.5-19.7zm42.9-149.9c0-5.6 4.5-10.2 10.2-10.2 5.6 0 10.2 4.5 10.2 10.2 0 5.6-4.5 10.2-10.2 10.2s-10.2-4.5-10.2-10.2zM61.6 246.3c0-4.6 3.7-8.3 8.3-8.3 4.6 0 8.3 3.7 8.3 8.3s-3.7 8.3-8.3 8.3c-4.6 0-8.3-3.7-8.3-8.3zm64.2-73.3c0-5.6 4.6-10.2 10.2-10.2s10.2 4.5 10.2 10.2c0 5.6-4.6 10.2-10.2 10.2-5.7-.1-10.2-4.6-10.2-10.2zM378.7 141.4c-11.7 0-21.1-9.5-21.1-21.1s9.5-21.1 21.1-21.1c11.7 0 21.1 9.5 21.1 21.1s-9.4 21.1-21.1 21.1zm0-32.3c-6.1 0-11.2 5-11.2 11.2 0 6.1 5 11.2 11.2 11.2 6.1 0 11.2-5 11.2-11.2 0-6.2-5-11.2-11.2-11.2z"/>
  <path class="st3" d="M436.4 294.9h-10v-25.4c0-15.4-7.4-29.9-19.7-38.9l-8.8-6.3c-15-10.9-23.9-28.4-23.9-47v-39.7h10v39.7c0 15.4 7.4 29.9 19.7 38.9l8.8 6.3c15 10.9 23.9 28.4 23.9 47v25.4zM920.5 224.1c0-9.7-8.2-17.6-18-17.1-8.7.4-15.9 7.6-16.3 16.3-.4 8.3 5.2 15.4 12.7 17.4v29.8c0 12.4-6.1 24.2-16 31.5l-7.2 5.2c-3.4 2.5-6.5 5.5-9.1 8.8V142.3c10.9-3 18.7-13.4 17.8-25.4s-10.8-21.7-22.8-22.4c-14.2-.9-25.9 10.3-25.9 24.3 0 11.2 7.6 20.7 17.9 23.5v137.1c-2.1-2.4-4.4-4.6-6.9-6.6l-31.2-25.2c-9.5-7.7-14.9-19.1-14.9-31.3V185c7.7-3 13-10.7 12.4-19.7-.6-9.2-7.9-16.9-17-18.1-12-1.5-22.2 7.8-22.2 19.5 0 8.8 5.8 16.2 13.8 18.7v30.9c0 16 7.2 31.2 19.7 41.4l31.4 25.3c9.4 7.6 14.9 19 14.9 31.3v74.2c0 13.2-5.4 26.3-14.9 35.9l-51.2 51.2 9.2 9.2 51.2-51.2c11.9-11.9 18.7-28.3 18.7-45v-46.5c0-10.5 4.5-20.6 12.7-27.1l1.2-.9 7.2-5.2c12.1-8.9 19.3-23.2 19.3-38.1v-29.6c7.8-2.1 13.5-8.9 13.5-17.1zm-127.1-64c3.7 0 6.6 2.9 6.6 6.6 0 3.7-2.9 6.6-6.6 6.6-3.7 0-6.6-2.9-6.6-6.6 0-3.6 3-6.6 6.6-6.6zm55.3-41.3c0-6.2 5-11.4 11.4-11.4s11.4 5.1 11.4 11.4-5 11.4-11.4 11.4c-6.2-.1-11.4-5.2-11.4-11.4zm54.7 114.5c-5 0-9.1-4-9.1-9.1s4.1-9.1 9.1-9.1 9.1 4 9.1 9.1-4.2 9.1-9.1 9.1zM405.3 387.4c0-8.3-7-15.1-15.4-14.7-7.5.4-13.6 6.5-13.9 14-.3 7.1 4.4 13.2 10.9 14.9v25.5c0 10.6-5.2 20.7-13.7 27l-6.2 4.5c-2.9 2.2-5.5 4.7-7.8 7.5V317.3c9.3-2.6 16-11.5 15.3-21.8-.8-10.3-9.2-18.6-19.5-19.2-12.1-.8-22.2 8.9-22.2 20.8 0 9.6 6.5 17.7 15.3 20.1v117.4c-1.8-2-3.7-3.9-5.9-5.7l-26.7-21.6c-8.2-6.6-12.8-16.3-12.8-26.8v-26.8c6.6-2.6 11.2-9.2 10.6-16.8-.5-7.9-6.7-14.5-14.6-15.5-10.2-1.3-19 6.7-19 16.7 0 7.5 5 13.9 11.8 16v26.4c0 13.7 6.1 26.7 16.9 35.4l26.9 21.7c8.1 6.5 12.7 16.3 12.7 26.8v63.5c0 11.3-4.6 22.5-12.7 30.7l-43.8 43.8 7.9 7.9 43.8-43.8c10.2-10.2 16-24.3 16-38.6V488c0-9 3.9-17.6 10.9-23.2.3-.3.7-.5 1-.8l6.2-4.5c10.4-7.6 16.6-19.9 16.6-32.7v-25.3c6.5-1.2 11.4-7.1 11.4-14.1zm-108.8-54.8c3.1 0 5.7 2.5 5.7 5.7 0 3.1-2.5 5.7-5.7 5.7-3.1 0-5.7-2.5-5.7-5.7.1-3.2 2.6-5.7 5.7-5.7zm47.4-35.4c0-5.3 4.3-9.7 9.7-9.7 5.4 0 9.7 4.4 9.7 9.7s-4.3 9.7-9.7 9.7c-5.3 0-9.7-4.4-9.7-9.7zm46.8 98.1c-4.3 0-7.8-3.5-7.8-7.8s3.5-7.8 7.8-7.8c4.2 0 7.8 3.5 7.8 7.8-.1 4.3-3.6 7.8-7.8 7.8z"/>
  <path class="st4" d="M213.1 312.4c-.7 0-1.4-.6-1.4-1.4v-95.6c0-.7.6-1.4 1.4-1.4s1.4.6 1.4 1.4V311c-.1.8-.7 1.4-1.4 1.4z"/>
  <circle class="st4" cx="213.1" cy="316.2" r="5"/>
  <path class="st3" d="M690.5 121.9c0-10.8-8.8-19.6-19.6-19.6s-19.6 8.8-19.6 19.6c0 8.4 5.3 15.5 12.7 18.3v40.6c0 12.6-5.6 24.1-15.3 31.8L597 253.7c-2.5 2-4.7 4.1-6.8 6.5v-59.9c11.1-2.8 19.4-13 19.4-25 0-14.2-11.6-25.8-25.8-25.8S558 161 558 175.2c0 11.3 7.3 21 17.5 24.4v189c0 20.5 8.5 40.3 23.3 54.3l22.2 21.2c11.9 11.3 18.8 27.2 18.8 43.7h14.6c0-20.4-8.4-40.2-23.4-54.3l-22.2-21.3c-11.9-11.3-18.7-27.1-18.7-43.6v-48.1h.7V297c0-12.5 5.6-24 15.3-31.8l51.7-41c13.2-10.5 20.8-26.2 20.8-43.3V140c7-3.1 11.9-10 11.9-18.1zm-106.7 42.2c6.1 0 11.1 5 11.1 11.1s-5 11.1-11.1 11.1-11.1-5-11.1-11.1 4.9-11.1 11.1-11.1zm87.1-48.8c3.7 0 6.6 3 6.6 6.6 0 3.7-2.9 6.6-6.6 6.6s-6.6-2.9-6.6-6.6c0-3.7 2.9-6.6 6.6-6.6z"/>
  <path class="st5" d="M630.3 251.5s-18.8 17.3-14.8 40.3 12.4 13.1 12.4 13.1l2.4-53.4z"/>
  <circle class="st4" cx="779.7" cy="405.6" r="6.1"/>
  <ellipse class="st5" cx="701" cy="279.1" rx="82" ry="55.6"/>
  <path class="st4" d="M788.2 440.2h-17v-19.7c0-4.5 4-8.5 8.5-8.5s8.5 4 8.5 8.5v19.7z"/>
  <path class="st7" d="M827.2 582v-70.5-2.6c-1.1-33.9-24.9-62.8-57.5-72-15.7-4.4-39.9-9.8-64.5-9.8-24.1 0-46.6 5.3-60.8 9.6-31.9 9.8-55 38.6-56.1 72.2v78.3l119.5 9.4L827.2 582z"/>
  <path class="st8" d="M704.9 149.3l-108.8 63v9.4l108.8 63 108.7-63v-9.4l-108.7-63zm37.9 39.2c-1.7 0-1.7-2.4 0-2.4 1.5-.3 1.5 2.4 0 2.4z"/>
  <path class="st7" d="M704.9 159.3l-107.1 62.1 107.1 62.1L812 221.4l-107.1-62.1z"/>
  <path class="st5" d="M617 366.3s-3.3 6.8-2.4 17.5l6.8-4.4v4.8l7.7-4.4 140 2.9 8.7 6.2.9-5.9 9.8 3.9s4.4-16.6-2.4-29.2c-6.6-12.5-169.1 8.6-169.1 8.6z"/>
  <path class="st9" d="M760.9 221.5c-1.1-10.2-26.8-20.1-58.4-20.1s-57.3 10.2-58.4 20.1V294h116.7l.1-72.5z"/>
  <path class="st7" d="M760.9 221.5c-1.1-10.2-26.8-20.1-58.4-20.1s-57.3 10.2-58.4 20.1v1.7c1.1-10.2 26.8-20.1 58.4-20.1s57.3 10.2 58.4 20.1v-1.7z"/>
  <path class="st5" d="M600.6 351.4c5.9 13.1 19.9 19.5 29 18.8 14.4-1.1 13.1-10 11.8-24.3s-17.3-25.3-31.7-23.9c-14.4 1.1-14.1 18.6-9.1 29.4z"/>
  <linearGradient id="SVGID_1_" gradientUnits="userSpaceOnUse" x1="150.408" y1="362.625" x2="150.408" y2="319.104" gradientTransform="matrix(-1 0 0 1 770.182 5.205)">
    <stop offset=".286" stop-color="#174772" stop-opacity="0"/>
    <stop offset="1" stop-color="#174772"/>
  </linearGradient>
  <path d="M602.4 350.8c5.3 11.8 17.7 17.5 26 17 12.9-.9 11.8-8.9 10.7-21.7-1.1-12.9-15.7-22.7-28.4-21.5-12.7.9-12.5 16.6-8.3 26.2z" opacity=".3" fill="url(#SVGID_1_)"/>
  <circle class="st11" cx="622.2" cy="345.8" r="12.2"/>
  <circle class="st7" cx="622.2" cy="345.8" r="9.4"/>
  <path class="st12" d="M612.2 321.8c6.8 0 13.8 2.8 19.2 7l-.4 41.4c-.6 0-.9.2-1.5.2-2.9.2-6.4-.4-10-1.7l-7.3-46.9z"/>
  <path class="st5" d="M801.1 351.4c-5.9 13.1-19.9 19.5-29 18.8-14.4-1.1-13.1-10-11.8-24.3s17.3-25.3 31.7-23.9c14.5 1.3 14.1 18.6 9.1 29.4z"/>
  <linearGradient id="SVGID_2_" gradientUnits="userSpaceOnUse" x1="461.945" y1="362.625" x2="461.945" y2="319.104" gradientTransform="translate(319.943 5.205)">
    <stop offset=".286" stop-color="#174772" stop-opacity="0"/>
    <stop offset="1" stop-color="#004670"/>
  </linearGradient>
  <path d="M799.2 350.8c-5.3 11.8-17.7 17.5-26 17-12.9-.9-11.8-8.9-10.7-21.7 1.1-12.9 15.7-22.7 28.4-21.5 13 .9 12.6 16.6 8.3 26.2z" opacity=".3" fill="url(#SVGID_2_)"/>
  <circle class="st5" cx="779.5" cy="345.8" r="12"/>
  <circle class="st7" cx="779.5" cy="345.8" r="9.4"/>
  <path class="st12" d="M789.7 321.8c-6.8 0-13.8 2.8-19.2 7l.4 41.4c.6 0 .9.2 1.5.2 2.9.2 6.4-.4 10-1.7l7.3-46.9z"/>
  <path class="st14" d="M704.2 482.3c20.3 0 36.6-16.4 36.6-36.6V444c0-7.5-4.8-14.6-12.2-17h-49-.2c-7.2 2.4-12.2 9.3-12.2 17v1.7c.4 20.2 16.8 36.6 37 36.6z"/>
  <path class="st5" d="M704.2 479c-18.6 0-33.6-16.4-33.6-35v-39.5H738V444c0 18.6-15.2 35-33.8 35z"/>
  <linearGradient id="SVGID_3_" gradientUnits="userSpaceOnUse" x1="704.3" y1="473.995" x2="704.3" y2="399.495" gradientTransform="translate(0 5.205)">
    <stop offset=".29" stop-color="#174772" stop-opacity="0"/>
    <stop offset="1" stop-color="#174772"/>
  </linearGradient>
  <path d="M704.2 479.2c-18.6 0-33.6-16.4-33.6-35v-39.5H738v39.4c0 18.7-15.2 35.1-33.8 35.1z" fill="url(#SVGID_3_)"/>
  <path class="st16" d="M738 404.6h-67.4V426l16 14.8c10 5.7 22.3 5.7 32.3 0l19-16.6.1-19.6z"/>
  <path class="st5" d="M624.4 277.3s-25.9 43.5 0 63.2v-63.2zM779.5 277.3s25.9 43.5 0 63.2v-63.2z"/>
  <path class="st5" d="M779.9 280.9c0-10.9-34.8-25.9-78.1-25.9s-78.1 15.3-78.1 25.9c0 .6-.2 4-.2 5.3v77.4c0 18.8 10 36.1 26.2 45.7l39 22.5c7.9 4.6 17.7 4.6 25.9 0l39-22.5c16.2-9.4 26.2-26.8 26.2-45.7v-77.9c.3-1.2.1-4.2.1-4.8z"/>
  <linearGradient id="SVGID_4_" gradientUnits="userSpaceOnUse" x1="701.733" y1="429.828" x2="701.733" y2="249.912" gradientTransform="translate(0 5.205)">
    <stop offset=".316" stop-color="#fff" stop-opacity="0"/>
    <stop offset="1" stop-color="#fff"/>
  </linearGradient>
  <path d="M779.9 280.9c0-10.9-34.8-25.9-78.1-25.9s-78.1 15.3-78.1 25.9c0 .6-.2 4-.2 5.3v77.4c0 18.8 10 36.1 26.2 45.7l39 22.5c7.9 4.6 17.7 4.6 25.9 0l39-22.5c16.2-9.4 26.2-26.8 26.2-45.7v-77.9c.3-1.2.1-4.2.1-4.8z" fill="url(#SVGID_4_)"/>
  <circle class="st16" cx="645.4" cy="340.5" r="8.5"/>
  <circle class="st16" cx="759.8" cy="340.8" r="8.5"/>
  <path class="st18" d="M630.5 272.3s6.4 10.2 5 20.3l-10.5-12c-.2-.2.4-3.7 5.5-8.3z"/>
  <path d="M779.7 319.1c-.2-.2-7.3 9.4-7.3 25.1s-4.4 43.3-25.9 43.3c-21.2 0-18.4-13.3-44.8-13.7h-.8c-26.2.4-23.4 13.7-44.8 13.7s-25.9-27.5-25.9-43.3c0-13.5-5.3-22.5-6.8-24.8v43.8c0 18.2 10 35.2 26.2 44.6l39 22.1c7.9 4.4 17.7 4.4 25.7 0l39-22.1c16.2-9.3 26.2-26.2 26.2-44.6l.2-44.1z" opacity=".2" fill="#5799b0"/>
  <path class="st18" d="M702.7 259.6c-29.7 0-55.2 6.8-64.6 16.2h-.2l-.4.4c13.5 6.2 30.3 12.9 71.1 12.6l-6.2-14.6s22.1 16 44 19.3l-4.8-23.8s14 16.6 29.2 11.8c-3.3-12.3-32.4-21.9-68.1-21.9z"/>
  <path class="st5" d="M702.8 250.3c-33.7 0-62.4 11.5-73.2 21.4h-.2l-.6.6c15.3 6.6 36.1 11.3 82.5 10.9l-7.2-14.4s24.9 17.1 49.5 20.4l-7.2-23.8s15.9 17.3 33 12.4c-3-12.9-36-27.5-76.6-27.5z"/>
  <path class="st14" d="M704.2 268.5l.7 1.7c4.4 2.9 26.6 17 48.6 19.9l-.4-1.1c-24.2-3.6-48.9-20.5-48.9-20.5zM629.6 272.1s-.2.2 0 0l-.2.2h-.2l-.6.6c15.3 6.6 36.1 11.3 82.5 10.9l-.6-1.1c-44.9.3-65.8-4.1-80.9-10.6zM746.5 264.9l.6 1.7c2.8 2.8 17.1 16.4 32.6 11.8-.2-.4-.2-.7-.4-1.1-17.1 4.7-32.8-12.4-32.8-12.4z"/>
  <path class="st5" d="M703.3 388.3c-23.9 0-29.9-9.1-29.9.4 0 5.1 4 13.7 10.5 19.9 3.5 3.5 9.1 4 13.1 1.3 1.8-1.3 3.9-4.2 6.2-4.2s4.4 2.9 6.2 4.2c4 2.9 9.4 2.4 13.1-1.3 6.4-6.4 10.5-14.8 10.5-19.9-.1-9.5-6.3-.4-29.7-.4z"/>
  <path class="st20" d="M703.3 400.5c-16.4 0-29.3-7.2-29.3-14.8h1.1c0 6.2 13.5 11.5 28.2 11.5 14.8 0 28.2-5.3 28.2-11.5h1.1c-.2 7.6-12.9 14.8-29.3 14.8z"/>
  <circle class="st21" cx="668.9" cy="328.3" r="2.6"/>
  <circle class="st21" cx="738.4" cy="328.3" r="2.6"/>
  <path class="st22" d="M676 392s8.7 11.6 27.7 11.6 26.8-12.6 26.8-12.6-7.3 9.3-27.1 9.3c-19.9 0-27.4-8.3-27.4-8.3z"/>
  <path class="st9" d="M703.3 400.3c-16.4 0-29.3-6.1-29.3-13.7l1.1 1.1c0 6.2 13.5 11.5 28.2 11.5 14.8 0 28.2-5.3 28.2-11.5l1.1-1.1c-.2 7.6-12.9 13.7-29.3 13.7z"/>
  <circle class="st5" cx="704" cy="453.6" r="6.1"/>
  <path d="M710.1 453.6c0 3.3-2.8 6.1-6.1 6.1s-6.1-2.8-6.1-6.1" fill="none" stroke="#9fb3c5" stroke-width=".987" stroke-linecap="round" stroke-miterlimit="10"/>
  <path class="st24" d="M585.2 517.7c-.4-3.9 2.8-7.3 6.8-7.3l25.5.2c3.1 0 5.9 2.4 6.2 5.5.6 3.9-2.6 7.5-6.4 7.5l-25.3.4c-3.5 0-6.4-2.8-6.8-6.3zM581.9 536.1c-.4-3.9 2.8-7.3 6.8-7.3l25.5.2c3.1 0 5.9 2.4 6.2 5.5.6 3.9-2.6 7.5-6.4 7.5l-25.3.4c-3.5-.1-6.4-2.9-6.8-6.3zM581.5 566.5c-.4-3.9 2.8-7.3 6.8-7.3l25.6.2c3.1 0 5.9 2.4 6.2 5.5.6 3.9-2.6 7.5-6.4 7.5l-25.3.4c-3.8-.1-6.7-2.8-6.9-6.3zM581 551.9c-.4-3.9 2.8-7.3 6.8-7.3l25.5.2c3.1 0 5.9 2.4 6.2 5.5.6 3.9-2.6 7.5-6.4 7.5l-25.3.4c-3.5 0-6.5-2.8-6.8-6.3zM829.2 528.6c.4-3.9-2.8-7.3-6.8-7.3l-25.5.2c-3.1 0-5.9 2.4-6.2 5.5-.6 3.9 2.6 7.5 6.4 7.5l25.3.4c3.5.1 6.6-2.5 6.8-6.3zM832.5 547c.4-3.9-2.8-7.3-6.8-7.3l-25.5.2c-3.1 0-5.9 2.4-6.2 5.5-.6 3.9 2.6 7.5 6.4 7.5l25.3.4c3.5-.1 6.4-2.7 6.8-6.3zM832.9 577.4c.4-3.9-2.8-7.3-6.8-7.3l-25.5.2c-3.1 0-5.9 2.4-6.2 5.5-.6 3.9 2.6 7.5 6.4 7.5l25.3.4c3.7-.1 6.6-2.6 6.8-6.3zM833.5 563c.4-3.9-2.8-7.3-6.8-7.3l-25.5.2c-3.1 0-5.9 2.4-6.2 5.5-.6 3.9 2.6 7.5 6.4 7.5l25.3.4c3.4 0 6.6-2.8 6.8-6.3z"/>
  <path class="st22" d="M709.5 370c0 4.2-3.5 9.3-7.5 9.3-4.2 0-7.5-5-7.5-9.3s3.5-4.2 7.5-4.2c4.2-.2 7.5 0 7.5 4.2z"/>
  <path class="st25" d="M693.1 369.4c0-5 4-39 9.1-39 5 0 9.1 33.9 9.1 39 0 5-4 5.1-9.1 5.1-5 .1-9.1-.1-9.1-5.1z"/>
  <path class="st21" d="M706.6 371.6c-1.1 0-2 .9-2 2 0 .2 0 .6.2.7 1.5 0 2.8-.2 3.7-.7-.1-1-1-2-1.9-2zM697.5 371.6c-1.1 0-2 .9-2 2 1.1.4 2.4.6 3.7.7 0-.2.2-.4.2-.7 0-1-.8-2-1.9-2z"/>
  <circle class="st9" cx="673.8" cy="386" r="2.2"/>
  <circle class="st9" cx="732.4" cy="386" r="2.2"/>
  <path d="M687.8 353.2c2.4 0 4.6-1.3 5.5-3.5 1.3-3.1 4.4-5.3 8.1-5.3 3.7 0 6.8 2.2 8.1 5.3.9 2.2 3.1 3.5 5.5 3.5" fill="none" stroke="#fff" stroke-width="2.209" stroke-miterlimit="10"/>
  <path class="st27" d="M683.5 338.6c-2.4-1.5-5-2.4-8.1-2.4-8.1 0-14.6 6.4-14.6 14.6 0 2.9.9 5.7 2.4 8.1l20.3-20.3z"/>
  <path class="st28" d="M688.9 345c-.2-.6-.6-1.1-.9-1.7l-19.9 19.9c.6.4 1.1.6 1.7.9l19.1-19.1zM672.1 365c1.1.2 2.2.4 3.3.4 8.1 0 14.6-6.4 14.6-14.6 0-1.1-.2-2.4-.4-3.3L672.1 365z"/>
  <path class="st27" d="M736.3 338.6c-2.4-1.5-5-2.4-8.1-2.4-8.1 0-14.6 6.4-14.6 14.6 0 2.9.9 5.7 2.4 8.1l20.3-20.3z"/>
  <path class="st28" d="M741.7 345c-.2-.6-.6-1.1-.9-1.7l-19.9 19.9c.6.4 1.1.6 1.7.9l19.1-19.1zM724.8 365c1.1.2 2.2.4 3.3.4 8.1 0 14.6-6.4 14.6-14.6 0-1.1-.2-2.4-.4-3.3L724.8 365z"/>
  <path class="st25" d="M675.4 367c-9.3 0-16.8-5.1-16.8-14.4s7.5-16.8 16.8-16.8 16.8 7.5 16.8 16.8c0 9.2-7.6 14.4-16.8 14.4zm0-26.7c-6.8 0-12.4 5.5-12.4 12.4 0 6.8 5.5 12.4 12.4 12.4 6.8 0 12.4-5.5 12.4-12.4s-5.6-12.4-12.4-12.4zM728.1 367.4c-9.3 0-16.8-5.5-16.8-14.8s7.5-16.8 16.8-16.8 16.8 7.5 16.8 16.8c.1 9.2-7.3 14.8-16.8 14.8zm0-27.1c-6.8 0-12.4 5.5-12.4 12.4 0 6.8 5.5 12.4 12.4 12.4 6.8 0 12.4-5.5 12.4-12.4s-5.6-12.4-12.4-12.4z"/>
  <path class="st14" d="M675.4 367.6c-9.3 0-16.8-7.5-16.8-16.8s7.5-16.8 16.8-16.8 16.8 7.5 16.8 16.8c0 9.2-7.6 16.8-16.8 16.8zm0-29.2c-6.8 0-12.4 5.5-12.4 12.4 0 6.8 5.5 12.4 12.4 12.4 6.8 0 12.4-5.5 12.4-12.4s-5.6-12.4-12.4-12.4zM728.1 367.6c-9.3 0-16.8-7.5-16.8-16.8s7.5-16.8 16.8-16.8 16.8 7.5 16.8 16.8c.1 9.2-7.3 16.8-16.8 16.8zm0-29.2c-6.8 0-12.4 5.5-12.4 12.4 0 6.8 5.5 12.4 12.4 12.4 6.8 0 12.4-5.5 12.4-12.4s-5.6-12.4-12.4-12.4z"/>
  <path class="st5" d="M629.4 271.2s5.1 10.9 2.6 20.6l-9.1-13.1c.1 0 3.4-3.8 6.5-7.5z"/>
  <circle class="st29" cx="702.1" cy="363.5" r="4"/>
  <path class="st9" d="M675.4 315.5l-14.9 1.3c-2.6.2-5-1.7-5.3-4.4-.2-2.6 1.7-5 4.4-5.3l14.9-1.3c2.6-.2 5 1.7 5.3 4.4.2 2.7-1.8 5.1-4.4 5.3zM747.6 321.1l-14.8-3.1c-2.6-.6-4.2-3.1-3.7-5.7.6-2.6 3.1-4.2 5.7-3.7l14.8 3.1c2.6.6 4.2 3.1 3.7 5.7-.3 2.6-3 4.3-5.7 3.7z"/>
  <path class="st30" d="M673 259.8l15.5 8.3s-10.7.9-20.4-.9c0 0 12.2 5.3 25.9 2l-21-9.4zM728.3 259.8l5.5 5.9s-10.5-2-19.3-6.6c0 0 10.2 8.5 24.1 9.3l-10.3-8.6z"/>
  <path d="M779.7 277.6c0-.2-.2-.2-.2-.2v63.2c3.1-2.4 5.5-5.1 7.3-8.1l-7.1-54.9z" opacity=".25" fill="#004670"/>
  <path class="st32" d="M621 326.2l39 23.5M782.3 326.2l-38.6 23.2"/>
  <path class="st5" d="M630.3 272s1.5-12.7 16.4-21.2c11.6-6.8 31.7-19.7 56.5-19.7 37.7 0 40.9 31.7 40.9 31.7l-48.2-9.3-65.6 18.5z"/>
  <path class="st5" d="M737.6 255s11.6.6 24.3 3.3c12.7 2.8 16.6 16 16.6 16L737.6 255z"/>
  <path class="st4" d="M648.9 618.4v19.9l9.3-5.1 9.2 9v-23.8z"/>
  <path class="st33" d="M648.9 625.8l18.5 2v-11.6h-18.5z"/>
  <path class="st20" d="M702.5 500.4l-77-25.9v15.9l77.6 15.5z"/>
  <path class="st14" d="M600 492l11.7-3.4 94.9 11-.4 9.8-62.4-1.3z"/>
  <path class="st20" d="M710.8 500.6l80.2-26.1v15.9l-77.6 15.5z"/>
  <path class="st14" d="M812.4 492l-8.7-4.2-97.5 12.6v9l62.5-1.3z"/>
  <path class="st9" d="M695.9 629.1l-100.1-11.4V489.8l100.1 11.3zM719.1 629.1l100.4-11.4V489.8l-100.4 11.3z"/>
  <path class="st9" d="M595.8 617.7l100 11.3V501l-100-11.3v128zm123.3-116.6v128l100.1-11.3v-128l-100.1 11.3z"/>
  <linearGradient id="SVGID_5_" gradientUnits="userSpaceOnUse" x1="707.5" y1="484.495" x2="707.5" y2="621.865" gradientTransform="translate(0 5.205)">
    <stop offset=".374" stop-color="#17b8e1" stop-opacity="0"/>
    <stop offset="1" stop-color="#17b8e1"/>
  </linearGradient>
  <path d="M595.8 616.2l100 11.1V500.9l-100-11.1v126.4zm123.3-115.4v126.4L819.2 616V489.7l-100.1 11.1z" opacity=".13" fill="url(#SVGID_5_)"/>
  <path class="st4" d="M819.1 594.2l-18.2 24.9c-.4.6 0 1.1.6 1.1l18.8-2 .2-23.4c-.1-.8-1-1.2-1.4-.6zM596.6 594.6l18.2 24.9c.4.6 0 1.1-.6 1.1l-18.8-2-.2-23.4c.1-1 1-1.2 1.4-.6z"/>
  <path class="st14" d="M772.9 580.7c-.7 0-1.3-.2-1.7-.7l-15.5-14c-.6-.4-.7-1.1-.7-1.8s.2-1.5.7-2.2l15.3-16.8c.6-.6 1.3-.9 2.2-.9.7 0 1.3.2 1.7.7l15.5 14c.6.4.7 1.1.7 1.8s-.2 1.5-.7 2.2l-15.3 16.8c-.6.5-1.5.9-2.2.9z"/>
  <path class="st14" d="M773.3 544.8c.6 0 .9.2 1.5.6l15.5 14c.9.7.9 2.2 0 3.1L775 579.3c-.6.6-1.1.7-1.8.7-.6 0-.9-.2-1.5-.6l-15.5-14c-.9-.7-.9-2.2 0-3.1l15.3-16.8c.5-.4 1-.7 1.8-.7m-.4 28.7c.6 0 1.1-.2 1.5-.4l-3.5-.6.2.2c.5.6 1.1.8 1.8.8m.4-29.6c-.9 0-1.8.4-2.6 1.1l-15.3 16.8c-.6.7-.9 1.7-.9 2.6 0 .9.4 1.7.9 2.2l15.5 14c.6.6 1.3.7 2 .7.9 0 1.8-.4 2.6-1.1l15.3-16.8c.6-.7.9-1.7.9-2.6 0-.9-.4-1.7-.9-2.2l-15.5-14c-.6-.6-1.3-.7-2-.7z"/>
  <path class="st35" d="M595.8 493.5l100.1 11.3V503l-100.1-11.3zM719.1 503v1.8l100.4-11.3v-1.8z"/>
  <path class="st36" d="M788.9 559.4l-14.4-13.1c-.7-.7-2.2-.6-2.9.2l-2.9 3.3 3.7 3.5c.9-.4 1.8-.2 2.6.4.7.6.9 1.7.6 2.6l3.7 3.3c.9-.4 1.8-.4 2.6.4.9.9.9 2.4 0 3.5s-2.6 1.3-3.5.4c-.7-.7-.9-1.7-.6-2.8l-3.3-3.1v8.9c.2.2.6.2.7.4.9.9.9 2.4 0 3.5s-2.6 1.3-3.5.4c-.9-.9-.9-2.4 0-3.5.2-.2.6-.6.7-.6V558c-.4-.2-.6-.2-.7-.6-.7-.7-.9-1.8-.6-2.8l-3.7-3.3-9.8 10.7c-.7.9-.7 2.2 0 2.9L772 578c.7.7 2.2.6 2.9-.2l14.2-15.5c.6-.6.6-2-.2-2.9"/>
  <path class="st21" d="M719.1 501.1v2l100.4-11.2v-2.1zM595.8 491.9l100.1 11.2v-2l-100.1-11.3z"/>
  <path class="st37" d="M722.5 501.7c0-.4-.4-.7-.7-1.1-.6-.6-1.1-.9-1.8-1.1-2.8-1.1-7.3-1.8-12.6-1.8s-9.8.7-12.6 1.8c-.7.2-1.3.6-1.8 1.1-.4.4-.7.7-.7 1.1-.2.6-.4 1.1-.4 1.7V627.8c0 .6.2 1.1.4 1.7 0 .4.4.7.7 1.1.6.6 1.1.9 1.8 1.1 2.8 1.1 7.3 1.8 12.6 1.8s9.8-.7 12.6-1.8c.7-.2 1.3-.6 1.8-1.1.4-.4.7-.7.7-1.1.2-.6.4-1.1.4-1.7V503.3c-.3-.5-.3-1.1-.4-1.6z"/>
  <path class="st38" d="M721.9 501.7c0-.4-.4-.7-.7-1.1-.6-.6-1.1-.9-1.8-1.1-2.8-1.1-7.3-1.8-12.6-1.8 3.1 0 6.1.7 7.7 1.8.4.2.9.6 1.1 1.1.2.4.4.7.6 1.1.2.6.2 1.1.2 1.7V627.8c0 .6 0 1.1-.2 1.7 0 .4-.2.7-.6 1.1-.4.6-.7.9-1.1 1.1-1.7 1.1-4.6 1.8-7.7 1.8 5.1 0 9.8-.7 12.6-1.8.7-.2 1.3-.6 1.8-1.1.4-.4.7-.7.7-1.1.2-.6.4-1.1.4-1.7V503.3c0-.5 0-1.1-.4-1.6zM692.4 500.6c-.4.4-.7.7-.7 1.1-.2.6-.4 1.1-.4 1.7V627.8c0 .6.2 1.1.4 1.7 0 .4.4.7.7 1.1.6.6 1.1.9 1.8 1.1 2.8 1.1 7.3 1.8 12.6 1.8-3.1 0-6.1-.7-7.7-1.8-.4-.2-.9-.6-1.1-1.1-.2-.4-.4-.7-.6-1.1-.2-.6-.2-1.1-.2-1.7V503.3c0-.6 0-1.1.2-1.7 0-.4.2-.7.6-1.1.4-.6.7-.9 1.1-1.1 1.7-1.1 4.6-1.8 7.7-1.8-5.1 0-9.8.7-12.6 1.8-.5.2-1.3.6-1.8 1.2z"/>
  <path class="st11" d="M830.5 527.3c-.9-3.9-4.8-6.2-8.7-5l-24.3 7.3c-3.1.9-5 4-4.4 7.2.6 3.9 4.6 6.4 8.3 5.3l24.3-7c3.5-.7 5.5-4.3 4.8-7.8z"/>
  <path class="st39" d="M815.5 531.6c-.7-3.1-3.5-5.3-6.4-5.3l-11.5 3.5c-3.1.9-5 4-4.4 7.2.6 3.7 3.9 6.1 7.5 5.5l10.2-2.9c3.4-1 5.4-4.5 4.6-8z"/>
  <path class="st11" d="M834.1 562.6c-.6-3.9-4.2-6.6-8.1-5.7l-24.9 5.5c-3.1.7-5.1 3.7-5 6.8.4 4 4 6.8 7.9 5.9l24.8-5.1c3.3-.6 5.8-3.9 5.3-7.4z"/>
  <path class="st39" d="M820.6 564.8c-.4-2.9-2.6-5-5.1-5.7l-14.2 3.1c-3.1.7-5.1 3.7-5 6.8.2 3.1 2.6 5.5 5.5 6.1l13.7-2.8c3.2-.7 5.5-4 5.1-7.5z"/>
  <path class="st11" d="M832.7 577.4c-.4-3.3-3.5-5.3-6.8-4.6l-20.4 4.6c-2.6.6-4.4 2.9-4 5.7.2 3.3 3.3 5.5 6.6 5l20.4-4.2c2.7-.8 4.6-3.6 4.2-6.5z"/>
  <path class="st11" d="M832.7 577.4c-.4-3.3-3.5-5.3-6.8-4.6l-20.4 4.6c-2.6.6-4.4 2.9-4 5.7.2 3.3 3.3 5.5 6.6 5l20.4-4.2c2.7-.8 4.6-3.6 4.2-6.5z"/>
  <path class="st39" d="M822.1 579.8c-.4-2.9-3.1-5-6.1-4.8l-10.5 2.4c-2.6.6-4.4 2.9-4 5.7.2 3.3 3.3 5.5 6.6 5l10.9-2.2c2-1.2 3.2-3.5 3.1-6.1z"/>
  <path class="st11" d="M833.1 547.2c-.6-3.9-4.2-6.6-8.1-5.7l-29.5 6.2c-3.1.7-5.1 3.7-5 6.8.4 4 4 6.8 7.9 5.9l29.3-5.7c3.5-.8 6-4.1 5.4-7.5z"/>
  <path class="st39" d="M814.4 550.8c-.6-3.3-3.3-5.7-6.4-5.9l-12.4 2.6c-3.1.7-5.1 3.7-5 6.8.4 4 4 6.8 7.9 5.9L810 558c3-.9 4.8-3.9 4.4-7.2z"/>
  <circle class="st14" cx="800.6" cy="535.9" r="4"/>
  <circle class="st14" cx="803.7" cy="569.1" r="4"/>
  <circle class="st14" cx="807" cy="582.5" r="4"/>
  <circle class="st14" cx="798.1" cy="553.6" r="4"/>
  <path class="st11" d="M583.9 516.2c.9-3.9 4.8-6.2 8.7-5l24.3 7.3c3.1.9 5 4 4.4 7.2-.6 3.9-4.6 6.4-8.3 5.3l-24.3-7c-3.5-.8-5.5-4.3-4.8-7.8z"/>
  <path class="st39" d="M603.2 521.9c.7-3.1 3.5-5.3 6.4-5.3l11.5 3.5c3.1.9 5 4 4.4 7.2-.6 3.7-3.9 6.1-7.5 5.5l-10.2-2.9c-3.2-.9-5.4-4.5-4.6-8z"/>
  <path class="st11" d="M580.4 551.6c.6-3.9 4.2-6.6 8.1-5.7l24.9 5.5c3.1.7 5.1 3.7 5 6.8-.4 4-4 6.8-7.9 5.9l-24.8-5.1c-3.4-.7-5.8-4-5.3-7.4z"/>
  <path class="st39" d="M594 553.9c.4-2.9 2.6-5 5.1-5.7l14.2 3.1c3.1.7 5.1 3.7 5 6.8-.2 3.1-2.6 5.5-5.5 6.1l-13.7-2.8c-3.3-.6-5.5-4-5.1-7.5z"/>
  <path class="st11" d="M581.7 566.5c.4-3.3 3.5-5.3 6.8-4.6l20.4 4.6c2.6.6 4.4 2.9 4 5.7-.2 3.3-3.3 5.5-6.6 5l-20.4-4.2c-2.5-1-4.6-3.7-4.2-6.5z"/>
  <path class="st11" d="M581.7 566.5c.4-3.3 3.5-5.3 6.8-4.6l20.4 4.6c2.6.6 4.4 2.9 4 5.7-.2 3.3-3.3 5.5-6.6 5l-20.4-4.2c-2.5-1-4.6-3.7-4.2-6.5z"/>
  <path class="st39" d="M592.7 568.7c.4-2.9 3.1-5 6.1-4.8l10.5 2.4c2.6.6 4.4 2.9 4 5.7-.2 3.3-3.3 5.5-6.6 5l-10.9-2.2c-2.2-1.1-3.5-3.5-3.1-6.1z"/>
  <path class="st11" d="M581.3 536.1c.6-3.9 4.2-6.6 8.1-5.7l29.5 6.2c3.1.7 5.1 3.7 5 6.8-.4 4-4 6.8-7.9 5.9l-29.3-5.7c-3.5-.8-5.9-4.1-5.4-7.5z"/>
  <path class="st39" d="M600 539.7c.6-3.3 3.3-5.7 6.4-5.9l12.4 2.6c3.1.7 5.1 3.7 5 6.8-.4 4-4 6.8-7.9 5.9l-11.5-2.2c-2.9-.8-4.7-3.9-4.4-7.2z"/>
  <circle class="st14" cx="618.7" cy="525.8" r="4"/>
  <circle class="st14" cx="610.8" cy="558" r="4"/>
  <circle class="st14" cx="607.5" cy="571.6" r="4"/>
  <circle class="st14" cx="616.3" cy="542.5" r="4"/>
  <linearGradient id="SVGID_6_" gradientUnits="userSpaceOnUse" x1="-162.5" y1="411.895" x2="-162.5" y2="411.895" gradientTransform="translate(0 5.205)">
    <stop offset=".288" stop-color="#fff" stop-opacity="0"/>
    <stop offset=".756" stop-color="#fff"/>
  </linearGradient>
  <path class="st30" d="M697.5 245.9l3.9 4s-7.2-1.5-13.1-4.6c0 0 7 5.9 16.4 6.2l-7.2-5.6z"/>
  <path class="st5" d="M735.5 255.5s25.5 1.7 55 14.8c0 0-14.8-18.1-55-20.4-40.2-2.7 0 5.6 0 5.6z"/>
  <path class="st14" d="M635.1 259.4s39.9-31.5 72.4-29.2c32.3 2.4 35.6 28.6 35.6 28.6s-9.1-26.4-36.8-27.3c-31.6-1.4-71.2 27.9-71.2 27.9z"/>
  <path class="st14" d="M739 249.9s10.9 1.1 32.5 10.2c0 0-8.7-9.1-33-12.9l.5 2.7z"/>
  <circle class="st41" cx="328.5" cy="388.3" r="15.7"/>
  <circle class="st41" cx="191.5" cy="388.3" r="15.7"/>
  <path class="st7" d="M383.3 529c0 47.9-53.2 35-118.9 35s-119 12.6-119-35 53.2-86.4 118.9-86.4 119 38.6 119 86.4z"/>
  <path class="st5" d="M354.9 374.9c-4.6 10.4-15.5 15.3-22.5 14.8-11.3-.9-10.4-7.7-9.3-19s13.5-19.7 24.8-18.8c11.1 1.1 10.9 14.6 7 23z"/>
  <linearGradient id="SVGID_7_" gradientUnits="userSpaceOnUse" x1="19.989" y1="382.623" x2="19.989" y2="348.656" gradientTransform="translate(319.943 5.205)">
    <stop offset=".286" stop-color="#174772" stop-opacity="0"/>
    <stop offset="1" stop-color="#174772"/>
  </linearGradient>
  <path d="M353.5 374.6c-4 9.3-13.8 13.7-20.3 13.1-10-.7-9.3-7-8.3-17 .9-10 12.2-17.7 22.1-16.8 9.9 1 9.8 13.1 6.5 20.7z" opacity=".3" fill="url(#SVGID_7_)"/>
  <circle class="st11" cx="338.1" cy="370.7" r="9.4"/>
  <circle class="st7" cx="338.1" cy="370.7" r="7.3"/>
  <path class="st12" d="M345.9 351.9c-5.3 0-10.7 2-14.9 5.5l.2 32.1c.4 0 .7 0 1.3.2 2.2.2 5-.2 7.7-1.3l5.7-36.5z"/>
  <path class="st5" d="M166.6 374.9c4.6 10.4 15.5 15.3 22.5 14.8 11.3-.9 10.4-7.7 9.3-19-1.1-11.3-13.5-19.7-24.8-18.8-11.1 1.1-10.9 14.6-7 23z"/>
  <linearGradient id="SVGID_8_" gradientUnits="userSpaceOnUse" x1="-1147.448" y1="382.623" x2="-1147.448" y2="348.656" gradientTransform="matrix(-1 0 0 1 -965.828 5.205)">
    <stop offset=".286" stop-color="#174772" stop-opacity="0"/>
    <stop offset="1" stop-color="#174772"/>
  </linearGradient>
  <path d="M168.1 374.6c4 9.3 13.8 13.7 20.3 13.1 10-.7 9.3-7 8.3-17-.9-10-12.2-17.7-22.1-16.8-10.1 1-9.9 13.1-6.5 20.7z" opacity=".3" fill="url(#SVGID_8_)"/>
  <circle class="st7" cx="183.4" cy="370.7" r="7.3"/>
  <path class="st12" d="M175.6 351.9c5.3 0 10.7 2 14.9 5.5l-.2 32.1c-.4 0-.7 0-1.3.2-2.2.2-5-.2-7.7-1.3l-5.7-36.5z"/>
  <path class="st8" d="M261.7 162.8l-115.3 66.9v9.8l115.3 66.7 115.1-66.9v-9.8l-115.1-66.7zm40.1 41.2c-1.7 0-1.7-2.6 0-2.6s1.7 2.6 0 2.6z"/>
  <path class="st7" d="M261.7 173.2L148 238.9l113.6 65.8 113.6-65.8-113.5-65.7z"/>
  <path class="st9" d="M320.8 239c-1.1-10.7-28.4-21.4-61.7-21.4s-60.6 10.7-61.7 21.4v69.6h123.8l-.4-69.6z"/>
  <path class="st7" d="M320.8 239c-1.1-10.7-28.4-21.4-61.7-21.4s-60.6 10.7-61.7 21.4v1.8c1.1-10.7 28.4-21.4 61.7-21.4s60.6 10.7 61.7 21.4V239z"/>
  <circle class="st41" cx="312.5" cy="277.1" r="16.6"/>
  <circle class="st41" cx="203.3" cy="279.5" r="16.6"/>
  <circle class="st41" cx="337.2" cy="341.9" r="6.8"/>
  <path class="st7" d="M344.6 326.8c0-6.1-1.5-11.8-3.9-17 0-.9.2-1.7.2-2.6 0-14.2-7.7-26.8-19.2-33.4-3.1-13.1-13.1-23.6-25.9-27.7-2.9-3.3-7.3-5.5-12.4-5.5-1.3 0-2.6.2-3.9.6-5.5-3.1-12-5-18.8-5-7 0-13.5 1.8-19.2 5.1-2.2-1.1-4.6-1.7-7.2-1.7-5 0-9.6 2.2-12.6 5.7-14.4 3.5-25.5 15.1-28.4 29.7-10.2 7-17 18.6-17 31.9 0 2.4.2 4.8.7 7-1.3 3.9-2 8.1-2 12.6 0 3.3.4 6.2 1.1 9.4-2 1.1-3.3 3.3-3.3 5.7s1.3 4.4 3.1 5.7v1.1c0 21.4 17.3 38.6 38.6 38.6 21.4 0 38.6-17.3 38.6-38.6 0-4.4-.7-8.7-2-12.6.7-2.9 1.1-6.1 1.1-9.4 0-2.4-.2-4.8-.7-7 .6-1.7.9-3.1 1.3-4.8.9-.6 1.7-1.3 2.6-1.8 1.7.2 3.3.4 5.1.4 1.3 1.1 2.8 2 4.2 2.9.7 2.8 1.7 5.3 2.8 7.9 0 .9-.2 1.7-.2 2.6 0 2.4.2 4.6.6 7-2 4.6-2.9 9.6-2.9 14.9 0 21.4 17.3 38.6 38.6 38.6 21.4 0 38.6-17.3 38.6-38.6 0-2.4-.2-4.6-.6-7 1.9-4.3 3-9.3 3-14.7z"/>
  <linearGradient id="SVGID_9_" gradientUnits="userSpaceOnUse" x1="258.7" y1="382.193" x2="258.7" y2="231.041" gradientTransform="translate(0 5.205)">
    <stop offset=".29" stop-color="#174772" stop-opacity="0"/>
    <stop offset="1" stop-color="#174772"/>
  </linearGradient>
  <path d="M344.6 326.8c0-6.1-1.5-11.8-3.9-17 0-.9.2-1.7.2-2.6 0-14.2-7.7-26.8-19.2-33.4-3.1-13.1-13.1-23.6-25.9-27.7-2.9-3.3-7.3-5.5-12.4-5.5-1.3 0-2.6.2-3.9.6-5.5-3.1-12-5-18.8-5-7 0-13.5 1.8-19.2 5.1-2.2-1.1-4.6-1.7-7.2-1.7-5 0-9.6 2.2-12.6 5.7-14.4 3.5-25.5 15.1-28.4 29.7-10.2 7-17 18.6-17 31.9 0 2.4.2 4.8.7 7-1.3 3.9-2 8.1-2 12.6 0 3.3.4 6.2 1.1 9.4-2 1.1-3.3 3.3-3.3 5.7s1.3 4.4 3.1 5.7v1.1c0 21.4 17.3 38.6 38.6 38.6 21.4 0 38.6-17.3 38.6-38.6 0-4.4-.7-8.7-2-12.6.7-2.9 1.1-6.1 1.1-9.4 0-2.4-.2-4.8-.7-7 .6-1.7.9-3.1 1.3-4.8.9-.6 1.7-1.3 2.6-1.8 1.7.2 3.3.4 5.1.4 1.3 1.1 2.8 2 4.2 2.9.7 2.8 1.7 5.3 2.8 7.9 0 .9-.2 1.7-.2 2.6 0 2.4.2 4.6.6 7-2 4.6-2.9 9.6-2.9 14.9 0 21.4 17.3 38.6 38.6 38.6 21.4 0 38.6-17.3 38.6-38.6 0-2.4-.2-4.6-.6-7 1.9-4.3 3-9.3 3-14.7z" opacity=".32" fill="url(#SVGID_9_)"/>
  <path class="st45" d="M193.2 277.6c2.9-14.6 14.2-26.2 28.4-29.7 2.9-3.5 7.5-5.7 12.6-5.7 2.6 0 5 .6 7.2 1.7 5.7-3.3 12.2-5.1 19.2-5.1 6.8 0 13.3 1.8 18.8 5 1.3-.4 2.6-.6 3.9-.6 4.8 0 9.3 2.2 12.4 5.5 12.7 4 22.7 14.6 25.9 27.7 11.3 6.4 18.8 18.4 19.2 32.3v-1.5c0-14.2-7.7-26.8-19.2-33.4-3.1-13.1-13.1-23.6-25.9-27.7-2.9-3.3-7.3-5.5-12.4-5.5-1.3 0-2.6.2-3.9.6-5.5-3.1-12-5-18.8-5-7 0-13.5 1.8-19.2 5.1-2.2-1.1-4.6-1.7-7.2-1.7-5 0-9.6 2.2-12.6 5.7-14.4 3.5-25.5 15.1-28.4 29.7-10.2 7-17 18.6-17 31.9v1.5c.4-12.7 7-23.9 17-30.8z"/>
  <linearGradient id="SVGID_10_" gradientUnits="userSpaceOnUse" x1="251.8" y1="322.632" x2="251.8" y2="316.131" gradientTransform="translate(0 5.205)">
    <stop offset=".29" stop-color="#174772" stop-opacity="0"/>
    <stop offset="1" stop-color="#174772"/>
  </linearGradient>
  <path d="M252.1 327.9v-1.1c0-1.8-.2-3.7-.4-5.3 0 .4-.2.6-.2.9.3 1.6.6 3.5.6 5.5z" opacity=".32" fill="url(#SVGID_10_)"/>
  <linearGradient id="SVGID_11_" gradientUnits="userSpaceOnUse" x1="266.464" y1="344.736" x2="266.464" y2="329.236" gradientTransform="translate(0 5.205)">
    <stop offset=".29" stop-color="#174772" stop-opacity="0"/>
    <stop offset="1" stop-color="#174772"/>
  </linearGradient>
  <path d="M267.8 334.4c-1.8 4.4-2.8 9.3-2.8 14.2v1.3c.2-4.8 1.1-9.6 2.9-13.8.1-.4-.1-1-.1-1.7z" opacity=".32" fill="url(#SVGID_11_)"/>
  <linearGradient id="SVGID_12_" gradientUnits="userSpaceOnUse" x1="342.85" y1="322.867" x2="342.85" y2="304.802" gradientTransform="translate(0 5.205)">
    <stop offset=".29" stop-color="#174772" stop-opacity="0"/>
    <stop offset="1" stop-color="#174772"/>
  </linearGradient>
  <path d="M340.9 309.9v2.2c2.4 4.8 3.7 10.2 3.9 15.9v-1.3c-.2-6-1.5-11.6-3.9-16.8z" opacity=".32" fill="url(#SVGID_12_)"/>
  <linearGradient id="SVGID_13_" gradientUnits="userSpaceOnUse" x1="267.4" y1="322.717" x2="267.4" y2="321.217" gradientTransform="translate(0 5.205)">
    <stop offset=".29" stop-color="#174772" stop-opacity="0"/>
    <stop offset="1" stop-color="#174772"/>
  </linearGradient>
  <path d="M267.4 327.9v-1.5 1.5z" opacity=".32" fill="url(#SVGID_13_)"/>
  <linearGradient id="SVGID_14_" gradientUnits="userSpaceOnUse" x1="341.9" y1="344.692" x2="341.9" y2="338.314" gradientTransform="translate(0 5.205)">
    <stop offset=".29" stop-color="#174772" stop-opacity="0"/>
    <stop offset="1" stop-color="#174772"/>
  </linearGradient>
  <path d="M341.6 344.1c.4 1.8.6 3.7.6 5.7v-1.1c0-1.8-.2-3.5-.4-5.1 0 .2-.2.3-.2.5z" opacity=".32" fill="url(#SVGID_14_)"/>
  <linearGradient id="SVGID_15_" gradientUnits="userSpaceOnUse" x1="252" y1="344.628" x2="252" y2="331.928" gradientTransform="translate(0 5.205)">
    <stop offset=".29" stop-color="#174772" stop-opacity="0"/>
    <stop offset="1" stop-color="#174772"/>
  </linearGradient>
  <path d="M251 338.6c1.3 3.5 2 7.3 2 11.3v-1.1c0-4-.6-7.9-1.8-11.6 0 .5 0 .9-.2 1.4z" opacity=".32" fill="url(#SVGID_15_)"/>
  <linearGradient id="SVGID_16_" gradientUnits="userSpaceOnUse" x1="175.9" y1="322.559" x2="175.9" y2="309.877" gradientTransform="translate(0 5.205)">
    <stop offset=".29" stop-color="#174772" stop-opacity="0"/>
    <stop offset="1" stop-color="#174772"/>
  </linearGradient>
  <path d="M176.9 316.7c-.2-.6-.2-1.1-.2-1.7-1.1 3.7-1.8 7.5-1.8 11.6v.9c.2-3.6.9-7.3 2-10.8z" opacity=".32" fill="url(#SVGID_16_)"/>
  <linearGradient id="SVGID_17_" gradientUnits="userSpaceOnUse" x1="174.3" y1="337.951" x2="174.3" y2="331.261" gradientTransform="translate(0 5.205)">
    <stop offset=".29" stop-color="#174772" stop-opacity="0"/>
    <stop offset="1" stop-color="#174772"/>
  </linearGradient>
  <path d="M176 338.6c-.2-.7-.4-1.5-.6-2.2-1.7 1.3-2.8 3.1-2.8 5.5 0 .4 0 .7.2 1.3.5-2 1.6-3.7 3.2-4.6z" opacity=".32" fill="url(#SVGID_17_)"/>
  <path class="st14" d="M262.2 515.7c-23.8 0-44.6-15.7-53.4-37-4.8-11.3 3.5-23.6 15.7-23.6h75.6c12.2 0 20.3 12.4 15.7 23.6-9.2 21.3-29.7 37-53.6 37z"/>
  <path class="st5" d="M262.2 513.5c-25.7 0-46.6-22.8-46.6-48.6v-54.7h93.3v54.7c-.1 25.9-21 48.6-46.7 48.6z"/>
  <linearGradient id="SVGID_18_" gradientUnits="userSpaceOnUse" x1="262.25" y1="508.495" x2="262.25" y2="405.195" gradientTransform="translate(0 5.205)">
    <stop offset=".29" stop-color="#174772" stop-opacity="0"/>
    <stop offset="1" stop-color="#174772"/>
  </linearGradient>
  <path d="M262.2 513.7c-25.7 0-46.6-22.8-46.6-48.6v-54.7h93.3v54.7c-.1 25.8-21 48.6-46.7 48.6z" fill="url(#SVGID_18_)"/>
  <path class="st16" d="M308.8 410.4h-93.4V440l22.3 20.4c13.8 7.9 30.8 7.9 44.8 0l26.2-23 .1-27z"/>
  <path class="st5" d="M337.4 389.1l-3.7-57.9c-.7-12.9-6.1-24.8-14.8-33.9-3.3-3.5-8.5-4.6-12.9-2.9-11.8 4.6-31.9 14.8-45.5 14.8-14.2 0-34.8-10.4-46.8-14.8-4.4-1.7-9.4-.6-12.7 2.9-8.7 9.1-14 21-14.9 33.9l-3.7 57.9c-1.3 19.9 9.4 38.8 27 48.1l29 15.1c13.5 7 29.3 7 42.7 0l29-15.1c17.9-9.6 28.6-28.2 27.3-48.1z"/>
  <linearGradient id="SVGID_19_" gradientUnits="userSpaceOnUse" x1="259.9" y1="452.345" x2="259.9" y2="288.41" gradientTransform="translate(0 5.205)">
    <stop offset=".214" stop-color="#fff" stop-opacity="0"/>
    <stop offset="1" stop-color="#fff"/>
  </linearGradient>
  <path d="M337.4 389.1l-3.7-57.9c-.7-12.9-6.1-24.8-14.8-33.9-3.3-3.5-8.5-4.6-12.9-2.9-11.8 4.6-31.9 14.8-45.5 14.8-14.2 0-34.8-10.4-46.8-14.8-4.4-1.7-9.4-.6-12.7 2.9-8.7 9.1-14 21-14.9 33.9l-3.7 57.9c-1.3 19.9 9.4 38.8 27 48.1l29 15.1c13.5 7 29.3 7 42.7 0l29-15.1c17.9-9.6 28.6-28.2 27.3-48.1z" opacity=".62" fill="url(#SVGID_19_)"/>
  <path class="st56" d="M248.5 345.8c2.4 12.9-8.1 14.6-21.2 17-12.9 2.4-23.4 4.6-25.9-8.5-2.4-13.1 6.2-25.3 19.2-27.7 13.1-2.4 25.4 6.3 27.9 19.2zM321 354.5c-2.6 12.9-13.3 9.4-26.2 6.6-12.9-2.6-23-3.5-20.4-16.4s15.3-21.2 28.2-18.4c12.9 2.5 21.1 15.3 18.4 28.2z"/>
  <path class="st27" d="M224.9 394.6s12.9 7.5 34.3 7.5c19.9 0 35.8-8.1 35.8-8.1s-17.7 3.5-35.8 3.5c-18.5.1-34.3-2.9-34.3-2.9z"/>
  <circle class="st30" cx="246.7" cy="368" r=".9"/>
  <circle class="st30" cx="254" cy="353.2" r="1.5"/>
  <circle class="st30" cx="267.3" cy="359.8" r="1.5"/>
  <circle class="st30" cx="274.4" cy="367" r="1.5"/>
  <circle class="st30" cx="269.3" cy="353.2" r="1.5"/>
  <circle class="st30" cx="260.6" cy="357.1" r="1.5"/>
  <circle class="st30" cx="251.8" cy="360.7" r="1.5"/>
  <circle class="st57" cx="200.8" cy="374.6" r="7.2"/>
  <circle class="st57" cx="319.7" cy="374.6" r="7.2"/>
  <path d="M271.7 382.7c0 4-5 8.7-11.1 8.7s-11.1-4.8-11.1-8.7c0-3.9 5-4 11.1-4 6.1-.1 11.1.1 11.1 4z" opacity=".3" fill="#748fa9"/>
  <path class="st21" d="M233 353.9c0 1.3-1.1 1.3-2.4 1.3s-2.4 0-2.4-1.3 1.1-2.4 2.4-2.4 2.4 1.2 2.4 2.4zM293 353.9c0 1.3-1.1 1.3-2.4 1.3s-2.4 0-2.4-1.3 1.1-2.4 2.4-2.4c1.3.1 2.4 1.2 2.4 2.4z"/>
  <path d="M223.6 394.2s30.3 15.7 73.4 0" fill="none" stroke="#174772" stroke-width="1.083" stroke-miterlimit="10"/>
  <circle class="st9" cx="297.2" cy="393.6" r="1.7"/>
  <circle class="st9" cx="223.6" cy="393.6" r="1.7"/>
  <path class="st25" d="M247.4 382.4c0-4.6 5.9-18.2 13.1-18.2s13.1 13.7 13.1 18.2-5.9 4.8-13.1 4.8c-7.3 0-13.1-.2-13.1-4.8z"/>
  <path class="st21" d="M267.3 384.4c-1.5 0-2.8.7-2.8 1.8 0 .2 0 .4.2.6 2 0 3.9-.2 5.5-.6-.2-1.1-1.5-1.8-2.9-1.8zM253.8 384.4c-1.5 0-2.8.7-2.8 1.8 1.5.4 3.3.6 5.5.6.2-.2.2-.4.2-.6 0-1.1-1.3-1.8-2.9-1.8z"/>
  <path class="st41" d="M212.5 338.1c-2.6 0-5-1.5-5.9-3.9-1.5-3.3.2-7.2 3.3-8.5 3.9-1.7 12.6-4.6 20.8-5.7 3.5-.4 6.8 2 7.2 5.7s-2 6.8-5.7 7.2c-6.8.9-14.4 3.5-17.3 4.8-.7.2-1.7.4-2.4.4zM307.3 342.3c-.4 0-.9-.2-1.3-.2-3.9-1.1-11.3-2.2-18.6-2.9-3.5-.4-6.2-3.5-5.9-7 .4-3.5 3.5-6.2 7-5.9 6.4.6 15.5 1.7 21 3.3 3.5.9 5.3 4.6 4.4 8.1-.6 2.9-3.6 4.8-6.6 4.6z"/>
  <path class="st30" d="M229.2 396.8s8.1 20.1 31.5 20.1c23.2 0 29.3-20.6 29.3-20.6s-16.4 4.8-31.5 4.8-29.3-4.3-29.3-4.3z"/>
  <path class="st9" d="M232.2 397.4s7.5 15.9 29 15.9c19.9 0 27.1-16.4 27.1-16.4s-15.1 4.4-29 4.4c-13.8 0-27.1-3.9-27.1-3.9z"/>
  <path class="st14" d="M240.8 400.3s5.5 6.1 19.3 6.1c13.5 0 19-6.1 19-6.1s-19.3 4.6-38.3 0z"/>
  <circle class="st29" cx="259.8" cy="378.1" r="3.1"/>
  <path class="st41" d="M280.3 452.3c0 5.3-11.5 10.9-19.5 10.9-8.5 0-19.5-5.5-19.5-10.9s1.8-.2 19.5-.2c18 0 19.5-5.1 19.5.2z"/>
  <path class="st61" d="M146.9 526c-.4-3.9 2.8-7.2 6.6-7.2l24.9.2c3.1 0 5.7 2.4 6.2 5.5.6 3.9-2.4 7.3-6.2 7.3l-24.8.4c-3.5-.1-6.5-2.8-6.7-6.2zM143.6 543.9c-.4-3.9 2.8-7.2 6.6-7.2l24.9.2c3.1 0 5.7 2.4 6.2 5.5.6 3.9-2.4 7.3-6.2 7.3l-24.9.2c-3.3 0-6.2-2.6-6.6-6zM143.3 573.5c-.4-3.9 2.8-7.2 6.6-7.2l24.9.2c3.1 0 5.7 2.4 6.2 5.5.6 3.9-2.4 7.3-6.2 7.3l-24.8.4c-3.6-.1-6.5-2.7-6.7-6.2zM142.7 559.3c-.4-3.9 2.8-7.2 6.6-7.2l24.9.2c3.1 0 5.7 2.4 6.2 5.5.6 3.9-2.4 7.3-6.2 7.3l-24.8.4c-3.4.1-6.3-2.7-6.7-6.2zM384.9 536.8c.4-3.9-2.8-7.2-6.6-7.2l-24.9.2c-3.1 0-5.7 2.4-6.2 5.5-.6 3.9 2.4 7.3 6.2 7.3l24.8.4c3.6-.2 6.3-2.7 6.7-6.2zM388 555.6c.4-3.9-2.8-7.2-6.6-7.2l-24.9.2c-3.1 0-5.7 2.4-6.2 5.5-.6 3.9 2.4 7.3 6.2 7.3l24.8.4c3.6-.1 6.5-2.7 6.7-6.2zM385.6 584.2c.2-3.5-2.4-6.2-5.9-6.2l-22.1.2c-2.8 0-5.1 2-5.5 4.8-.6 3.5 2.2 6.4 5.5 6.4l21.9.2c3.2.1 5.8-2.3 6.1-5.4zM388.9 570c.4-3.9-2.8-7.2-6.6-7.2l-24.9.2c-3.1 0-5.7 2.4-6.2 5.5-.6 3.9 2.4 7.3 6.2 7.3l24.8.4c3.6.1 6.6-2.7 6.7-6.2z"/>
  <path class="st4" d="M198.7 620.1v19.1l8.9-4.9 8.9 8.7v-22.9z"/>
  <path class="st33" d="M198.7 627.3l17.8 1.8v-11.2h-17.8z"/>
  <path class="st20" d="M261.1 508.1l-73.8-24.7v15.3l74.2 15z"/>
  <path class="st14" d="M162.9 500.4l10.9-3.5 91.1 10.6-.2 9.5-60.1-1.5z"/>
  <path class="st20" d="M268.9 508.3l76.9-24.9v15.3l-74.5 15z"/>
  <path class="st14" d="M366.2 500.4l-8.3-4.2-93.4 12.1v8.7l59.8-1.5z"/>
  <path class="st9" d="M254.7 631.5l-95.8-10.9V498l95.8 10.8zM277 631.5l95.8-10.9V498L277 508.8z"/>
  <path class="st9" d="M158.9 620.6l95.8 10.9V508.8L158.9 498v122.6zM277 508.8v122.7l95.8-10.9V498L277 508.8z"/>
  <linearGradient id="SVGID_20_" gradientUnits="userSpaceOnUse" x1="265.85" y1="492.795" x2="265.85" y2="624.395" gradientTransform="translate(0 5.205)">
    <stop offset=".374" stop-color="#17b8e1" stop-opacity="0"/>
    <stop offset="1" stop-color="#17b8e1"/>
  </linearGradient>
  <path d="M158.9 619.1l95.8 10.5v-121L158.9 498v121.1zM277 508.6v121l95.8-10.5V498.2L277 508.6z" opacity=".13" fill="url(#SVGID_20_)"/>
  <path class="st4" d="M372.4 598l-17.5 23.8c-.4.6 0 1.1.6 1.1l17.9-2 .2-22.5c.2-.5-.8-.7-1.2-.4zM159.4 598.4l17.5 23.8c.4.6 0 1.1-.6 1.1l-17.9-2-.2-22.5c.1-.8.8-.9 1.2-.4z"/>
  <path class="st14" d="M328.3 585.1c-.6 0-1.3-.2-1.7-.6L311.8 571c-.6-.4-.7-1.1-.7-1.7 0-.7.2-1.5.7-2l14.8-16c.6-.6 1.3-.9 2-.9.6 0 1.3.2 1.7.6l14.8 13.5c.6.4.7 1.1.7 1.7 0 .7-.2 1.5-.7 2l-14.8 16c-.2.5-1.2.9-2 .9z"/>
  <path class="st14" d="M328.7 550.6c.6 0 .9.2 1.3.6l14.8 13.5c.9.7.9 2.2 0 3.1l-14.8 16c-.6.6-1.1.7-1.7.7s-.9-.2-1.3-.6l-14.8-13.5c-.9-.7-.9-2.2 0-3.1l14.8-16c.4-.3 1.1-.7 1.7-.7m-.4 27.7c.6 0 .9-.2 1.5-.4l-3.3-.4.2.2c.3.3 1.1.6 1.6.6m.4-28.6c-.9 0-1.8.4-2.4 1.1l-14.8 16c-.6.7-.9 1.5-.9 2.4 0 .7.4 1.5.9 2l14.8 13.5c.6.6 1.3.7 2 .7.9 0 1.8-.4 2.4-1.1l14.8-16c.6-.7.9-1.5.9-2.4 0-.7-.4-1.5-.9-2l-14.8-13.5c-.4-.3-1.2-.7-2-.7z"/>
  <path class="st35" d="M158.9 501.7l95.8 10.7v-1.7l-95.8-10.9zM277 510.7v1.7l95.8-10.7v-1.9z"/>
  <path class="st36" d="M343.6 564.8L330 552.3c-.7-.7-2-.6-2.9.2l-2.8 3.1 3.7 3.3c.9-.4 1.8-.2 2.4.4.7.6.9 1.7.6 2.4l3.5 3.1c.9-.4 1.8-.2 2.6.4.9.9.9 2.4 0 3.3-.9 1.1-2.4 1.1-3.3.4-.7-.6-.9-1.7-.6-2.6l-3.3-2.9v8.5c.2.2.4.2.6.4.9.9.9 2.4 0 3.3-.9 1.1-2.4 1.1-3.3.4-.9-.9-.9-2.4 0-3.3.2-.2.6-.4.7-.6v-8.7c-.4 0-.6-.2-.7-.4-.7-.7-.9-1.7-.6-2.6l-3.5-3.3-9.4 10.4c-.7.9-.7 2.2 0 2.9l13.7 12.6c.7.7 2 .6 2.9-.2l13.7-14.9c.4-1 .4-2.3-.4-3.1"/>
  <path class="st21" d="M277 508.8v2.1l95.8-10.9v-2zM158.9 500l95.8 10.9v-2.1L158.9 498z"/>
  <path class="st37" d="M279.9 509.4c0-.4-.4-.7-.7-1.1-.6-.6-1.1-.9-1.8-.9-2.6-1.1-7-1.8-12-1.8s-9.4.7-12 1.8c-.7.2-1.3.6-1.8.9-.4.4-.7.7-.7 1.1-.2.6-.4.9-.4 1.5V630.1c0 .6.2 1.1.4 1.5 0 .4.4.7.7 1.1.6.6 1.1.9 1.8.9 2.6 1.1 7 1.8 12 1.8s9.4-.7 12-1.8c.7-.2 1.3-.6 1.8-.9.4-.4.7-.7.7-1.1.2-.6.4-.9.4-1.5v-119c0-.6-.2-1.2-.4-1.7z"/>
  <path class="st38" d="M279.5 509.4c0-.4-.4-.7-.7-1.1-.6-.6-1.1-.9-1.8-.9-2.6-1.1-7-1.8-12-1.8 3.1 0 5.9.7 7.3 1.8.4.2.7.6 1.1.9.2.4.4.7.6 1.1.2.6.2.9.2 1.5V630.1c0 .6 0 1.1-.2 1.5 0 .4-.2.7-.6 1.1-.4.6-.7.9-1.1.9-1.7 1.1-4.4 1.8-7.3 1.8 5 0 9.4-.7 12-1.8.7-.2 1.3-.6 1.8-.9.4-.4.7-.7.7-1.1.2-.6.4-.9.4-1.5v-119c0-.6-.2-1.2-.4-1.7z"/>
  <path class="st38" d="M251.4 508.3c-.4.4-.7.7-.7 1.1-.2.6-.4.9-.4 1.5V630.1c0 .6.2 1.1.4 1.5 0 .4.4.7.7 1.1.6.6 1.1.9 1.8.9 2.6 1.1 7 1.8 12 1.8-3.1 0-5.9-.7-7.3-1.8-.4-.2-.7-.6-1.1-.9-.2-.4-.4-.7-.6-1.1-.2-.6-.2-.9-.2-1.5v-119c0-.6 0-1.1.2-1.5 0-.4.2-.7.6-1.1.4-.6.7-.9 1.1-.9 1.7-1.1 4.4-1.8 7.3-1.8-5 0-9.4.7-12 1.8-.7-.1-1.4.3-1.8.7z"/>
  <path class="st5" d="M386.2 535.5c-.7-3.7-4.6-6.1-8.3-5l-23.8 7.2c-2.9.9-4.8 3.9-4.4 7 .6 3.9 4.4 6.2 8.1 5.1l23.8-6.8c3.3-.7 5.3-4.2 4.6-7.5z"/>
  <path class="st63" d="M371.3 539.5c-.7-3.1-3.3-5.1-6.4-5.1l-11.1 3.3c-2.9.9-4.8 3.9-4.4 7 .6 3.5 3.9 5.9 7.3 5.3l10-2.8c3.4-.8 5.4-4.4 4.6-7.7z"/>
  <path class="st5" d="M389.7 569.6c-.6-3.9-4.2-6.4-7.9-5.5l-24.2 5.3c-3.1.7-5.1 3.5-5 6.6.4 3.9 3.9 6.6 7.7 5.7l24.1-5c3.4-.2 5.6-3.6 5.3-7.1z"/>
  <path class="st63" d="M376.4 572c-.4-2.8-2.4-5-5-5.5l-13.8 3.1c-3.1.7-5.1 3.5-5 6.6.2 3.1 2.6 5.3 5.3 5.9l13.3-2.8c3.3-.6 5.5-3.8 5.2-7.3z"/>
  <path class="st11" d="M388.2 584.2c-.4-3.1-3.5-5.3-6.6-4.6l-20.1 4.4c-2.6.6-4.2 2.9-4 5.5.2 3.1 3.3 5.5 6.4 4.8l19.9-4c2.9-.6 4.8-3.2 4.4-6.1z"/>
  <path class="st5" d="M388.2 584.2c-.4-3.1-3.5-5.3-6.6-4.6l-20.1 4.4c-2.6.6-4.2 2.9-4 5.5.2 3.1 3.3 5.5 6.4 4.8l19.9-4c2.9-.6 4.8-3.2 4.4-6.1z"/>
  <path class="st63" d="M377.7 586.6c-.4-2.9-2.9-5-5.9-4.6l-10.4 2.2c-2.6.6-4.2 2.9-4 5.5.2 3.1 3.3 5.5 6.4 4.8l10.5-2.2c2.4-1.1 3.7-3.3 3.4-5.7z"/>
  <path class="st5" d="M388.8 554.7c-.6-3.9-4.2-6.4-7.9-5.5l-28.8 6.1c-3.1.7-5.1 3.5-5 6.6.4 3.9 3.9 6.6 7.7 5.7l28.6-5.5c3.5-.7 5.7-4.1 5.4-7.4z"/>
  <path class="st63" d="M370.4 558.3c-.4-3.3-3.1-5.5-6.2-5.7l-12.2 2.6c-3.1.7-5.1 3.5-5 6.6.4 3.9 3.9 6.6 7.7 5.7l11.3-2.2c3-.8 4.8-3.8 4.4-7z"/>
  <circle class="st14" cx="356.8" cy="543.7" r="3.9"/>
  <circle class="st14" cx="360.1" cy="576.1" r="3.9"/>
  <circle class="st14" cx="363.3" cy="589.3" r="3.9"/>
  <circle class="st14" cx="354.6" cy="561" r="3.9"/>
  <path class="st5" d="M145.7 524.7c.7-3.7 4.6-6.1 8.3-5l23.8 7.2c2.9.9 4.8 3.9 4.4 7-.6 3.9-4.4 6.2-8.1 5.1l-23.8-6.8c-3.4-.8-5.4-4.1-4.6-7.5z"/>
  <path class="st63" d="M164.5 530.1c.7-3.1 3.3-5.1 6.4-5.1l11.1 3.3c2.9.9 4.8 3.9 4.4 7-.6 3.5-3.9 5.9-7.3 5.3l-10-2.8c-3.3-.8-5.3-4.1-4.6-7.7z"/>
  <path class="st5" d="M142.2 558.9c.6-3.9 4.2-6.4 7.9-5.5l24.1 5.3c3.1.7 5.1 3.5 5 6.6-.4 3.9-3.9 6.6-7.7 5.7l-24.1-5c-3.4-.4-5.8-3.5-5.2-7.1z"/>
  <path class="st63" d="M155.6 561.4c.4-2.8 2.4-5 5-5.5l13.8 3.1c3.1.7 5.1 3.5 5 6.6-.2 3.1-2.6 5.3-5.3 5.9l-13.3-2.8c-3.6-.7-5.8-4-5.2-7.3z"/>
  <path class="st11" d="M143.5 573.5c.4-3.1 3.5-5.3 6.6-4.6l20.1 4.4c2.6.6 4.2 2.9 4 5.5-.2 3.1-3.3 5.5-6.4 4.8l-19.9-4c-3-.5-4.8-3.3-4.4-6.1z"/>
  <path class="st5" d="M143.8 572c.7-3.1 4-5 7-3.9l19.5 6.4c2.4.9 3.9 3.3 3.5 5.9-.6 3.1-3.7 5.1-6.8 4l-19.3-6.1c-3-.7-4.4-3.5-3.9-6.3z"/>
  <path class="st63" d="M154.3 575.3c.7-2.9 3.5-4.6 6.2-4l10 3.3c2.4.9 3.9 3.3 3.5 5.9-.6 3.1-3.7 5.1-6.8 4l-10.4-3.1c-2-1.2-3.3-3.6-2.5-6.1z"/>
  <path class="st5" d="M143.1 544c.6-3.9 4.2-6.4 7.9-5.5l28.8 6.1c3.1.7 5.1 3.5 5 6.6-.4 3.9-3.9 6.6-7.7 5.7l-28.6-5.5c-3.6-.8-6-4.1-5.4-7.4z"/>
  <path class="st63" d="M161.4 547.5c.4-3.3 3.1-5.5 6.2-5.7l12.2 2.6c3.1.7 5.1 3.5 5 6.6-.4 3.9-3.9 6.6-7.7 5.7l-11.3-2.2c-2.9-.9-4.7-3.9-4.4-7z"/>
  <circle class="st14" cx="174.9" cy="532.4" r="3.9"/>
  <circle class="st14" cx="171.8" cy="565.4" r="3.9"/>
  <circle class="st14" cx="168.3" cy="579.6" r="3.9"/>
  <circle class="st14" cx="177.3" cy="550.3" r="3.9"/>
  <path class="st8" d="M478.9 109.5l-72.5 42.2v8.7l72.5 42.2 72.5-42.2v-8.7l-72.5-42.2zm25.2 28.6c-1.1 0-1.1-1.7 0-1.7.9.1.9 1.7 0 1.7z"/>
  <path class="st7" d="M478.9 118.6L407.4 160l71.4 41.4 71.4-41.4-71.3-41.4z"/>
  <path class="st9" d="M516.1 160.2c-.7-6.6-17.9-13.5-39-13.5-21 0-38.2 6.6-39 13.5V204h78v-43.8z"/>
  <path class="st9" d="M516.1 160.2c-.7-6.6-17.9-13.5-39-13.5-21 0-38.2 6.6-39 13.5V204h78v-43.8z"/>
  <linearGradient id="SVGID_21_" gradientUnits="userSpaceOnUse" x1="479.15" y1="500.295" x2="479.15" y2="662.288" gradientTransform="translate(0 5.205)">
    <stop offset=".374" stop-color="#17b8e1" stop-opacity="0"/>
    <stop offset="1" stop-color="#17b8e1"/>
  </linearGradient>
  <path d="M347.4 654.4l118 12.9V518.4l-118-12.9v148.9zm145.5-136v148.8l118-12.9V505.5l-118 12.9z" opacity=".13" fill="url(#SVGID_21_)"/>
  <path class="st7" d="M516.1 160.2c-.7-6.6-17.9-13.5-39-13.5-21 0-38.2 6.6-39 13.5v1.1c.7-6.6 17.9-13.5 39-13.5 21 0 38.2 6.6 39 13.5v-1.1z"/>
  <path class="st61" d="M608 323.9c-9.8-54.1-35-86.9-53.7-104.4-21.4-21.2-48.1-34.8-76.8-34.8-47.5 0-89 37.3-110.9 83.3-9.3 18.4-21.4 51-18.4 89l2.9-3.9c8.1 59.1 61.5 86.2 126.2 86.2 70.3 0 127.3-32.1 127.3-102.4 0-6.1-.4-12.4-1.3-18.6 3.3 3.5 4.7 5.6 4.7 5.6z"/>
  <path class="st7" d="M608 323.9c-9.8-54.1-35-86.9-53.7-104.4-21.4-21.2-48.1-34.8-76.8-34.8-47.5 0-89 37.3-110.9 83.3-9.3 18.4-21.4 51-18.4 89l2.9-3.9c8.1 59.1 61.5 86.2 126.2 86.2 70.3 0 127.3-32.1 127.3-102.4 0-6.1-.4-12.4-1.3-18.6 3.3 3.5 4.7 5.6 4.7 5.6z"/>
  <linearGradient id="SVGID_22_" gradientUnits="userSpaceOnUse" x1="477.867" y1="433.495" x2="477.867" y2="178.895" gradientTransform="translate(0 5.205)">
    <stop offset=".421" stop-color="#174772" stop-opacity="0"/>
    <stop offset="1" stop-color="#174772"/>
  </linearGradient>
  <path d="M608 323.3c-9.8-54.1-35-86.9-53.7-104.4-21.4-21.2-48.1-34.8-76.8-34.8-47.5 0-89 37.3-110.9 83.3-9.3 18.4-21.4 51-18.4 89l2.9-3.9c8.1 59.1 61.5 86.2 126.2 86.2 70.3 0 127.3-32.1 127.3-102.4 0-6.1-.4-12.4-1.3-18.6 3.3 3.4 4.7 5.6 4.7 5.6z" opacity=".49" fill="url(#SVGID_22_)"/>
  <path class="st45" d="M366.6 270.5c21.7-46 63.4-84.4 110.9-84.4 28.8 0 55.6 14.9 76.8 35.9 18.1 17.1 42.7 49 53 100.6.6.7.7 1.1.7 1.1-9.8-54.1-35-86.9-53.7-104.4-21.4-21.2-48.1-34.8-76.8-34.8-47.5 0-89 37.3-110.9 83.3-8.5 16.8-19.2 45.3-18.8 78.9.2-32.7 10.6-59.8 18.8-76.2z"/>
  <path class="st5" d="M603.3 320.6c.7 5.9 1.3 11.8 1.3 17.5v-1.7c0-5.1-.4-10.2-.9-15.3 0-.2-.2-.4-.4-.5z"/>
  <path class="st20" d="M575.3 388.5c-4.6 10.2-15.3 14.9-22.1 14.4-11.1-.9-10.2-7.5-9.1-18.6.9-11.1 13.3-19.3 24.3-18.4 11.1.8 10.5 14.2 6.9 22.6z"/>
  <linearGradient id="SVGID_23_" gradientUnits="userSpaceOnUse" x1="240.431" y1="395.912" x2="240.431" y2="362.504" gradientTransform="translate(319.943 5.205)">
    <stop offset=".286" stop-color="#174772" stop-opacity="0"/>
    <stop offset="1" stop-color="#174772"/>
  </linearGradient>
  <path d="M573.6 388.1c-4 9.1-13.7 13.5-19.9 12.9-10-.7-9.1-6.8-8.1-16.8.9-9.8 12-17.5 21.7-16.6 9.8.9 9.8 12.8 6.3 20.5z" opacity=".3" fill="url(#SVGID_23_)"/>
  <circle class="st11" cx="558.7" cy="384.2" r="9.3"/>
  <circle class="st7" cx="558.7" cy="384.2" r="7.2"/>
  <path class="st67" d="M566.2 365.8c-5.1 0-10.5 2-14.8 5.3l.2 31.7c.4 0 .7 0 1.1.2 2.2.2 5-.2 7.5-1.3l6-35.9z"/>
  <path class="st20" d="M384 389.1c4.4 9.8 14.8 14.4 21.4 14 10.7-.7 9.8-7.3 8.9-18.1s-12.9-18.8-23.4-17.9c-10.8.9-10.4 13.7-6.9 22z"/>
  <linearGradient id="SVGID_24_" gradientUnits="userSpaceOnUse" x1="-687.35" y1="395.91" x2="-687.35" y2="363.635" gradientTransform="matrix(-1 0 0 1 -289.05 5.205)">
    <stop offset=".286" stop-color="#174772" stop-opacity="0"/>
    <stop offset="1" stop-color="#174772"/>
  </linearGradient>
  <path d="M385.5 388.5c3.9 8.7 13.3 12.9 19.2 12.6 9.6-.7 8.9-6.6 7.9-16.2s-11.6-16.8-21-16c-9.6.9-9.4 12.4-6.1 19.6z" opacity=".3" fill="url(#SVGID_24_)"/>
  <circle class="st11" cx="400" cy="384.7" r="8.9"/>
  <circle class="st7" cx="400" cy="384.7" r="7"/>
  <path class="st67" d="M392.6 367c5 0 10.2 2 14.2 5.1l-.2 30.6c-.4 0-.7 0-1.1.2-2.2.2-4.8-.2-7.3-1.1l-5.6-34.8z"/>
  <path class="st5" d="M520.3 446.6c-1.8-.9-1.1-3.3.6-3.9-3.3-.6-6.6-.9-9.8-1.5-.6 0-.9-.4-1.1-.6h-71.8v48.6c0 22.8 18.4 43.3 41.4 43.3 22.8 0 41.4-20.3 41.4-43.3V447c-.4-.2-.6-.4-.7-.4z"/>
  <linearGradient id="SVGID_25_" gradientUnits="userSpaceOnUse" x1="479.6" y1="527.295" x2="479.6" y2="435.395" gradientTransform="translate(0 5.205)">
    <stop offset=".29" stop-color="#174772" stop-opacity="0"/>
    <stop offset="1" stop-color="#174772"/>
  </linearGradient>
  <path d="M520.3 446.6c-1.8-.9-1.1-3.3.6-3.9-3.3-.6-6.6-.9-9.8-1.5-.4 0-.7-.2-.9-.6h-72v48.6c0 22.8 18.4 43.3 41.4 43.3 22.8 0 41.4-20.3 41.4-43.3v-42.5c-.4.1-.6-.1-.7-.1z" opacity=".6" fill="url(#SVGID_25_)"/>
  <path class="st5" d="M552.7 365.6l5.5-54.5-42.5 4.8-3.5-24.6-9.4 23.4L402 311c-.4 0-.9-.2-1.3-.4l7 56.5-7.3 3.7.2 22.1c0 14 6.1 27.5 16.6 36.8l30.1 26.2c18.2 15.9 45.7 15.9 63.9 0l8.3-7.2c-.4-1.1 21.9-19.2 21.9-19.2 10.5-9.3 16.6-22.5 16.6-36.3l.4-23.4-5.7-4.2z"/>
  <linearGradient id="SVGID_26_" gradientUnits="userSpaceOnUse" x1="479.45" y1="286.295" x2="479.45" y2="460.457" gradientTransform="translate(0 5.205)">
    <stop offset=".338" stop-color="#fff" stop-opacity="0"/>
    <stop offset="1" stop-color="#fff"/>
  </linearGradient>
  <path d="M552.7 364.7l5.5-53.7-42.5 4.6-3.5-24.1-9.4 22.9-100.8-3.7c-.4 0-.9-.2-1.3-.4l7 55.8-7.3 3.7.2 21.7c0 13.8 6.1 27.1 16.6 36.3l30.1 25.9c18.2 15.7 45.7 15.7 63.9 0l30.3-26c10.5-9.1 16.6-22.1 16.6-35.9l.4-23.2-5.8-3.9z" opacity=".78" fill="url(#SVGID_26_)"/>
  <path class="st16" d="M439.5 361.3c2.6 0 5.3 0 7.7.2 0-5.3-4.4-11.3-10-11.3s-10 5.9-10 11.3v.2c4.2-.2 8.1-.4 12.3-.4zM407.2 367.6c-2.4 0-4.6.2-6.6.7v24.1c0 13.5 5.5 26.2 15.1 35.4 12.9-3.7 22.3-15.5 22.3-29.5-.2-16.9-13.8-30.7-30.8-30.7zM551.6 367.6c2.4 0 4.6.2 6.6.7v24.1c0 13.5-5.5 26.2-15.1 35.4-12.9-3.7-22.3-15.5-22.3-29.5.2-16.9 13.9-30.7 30.8-30.7z"/>
  <path d="M488.8 388.1c0 5.1-4.2 11.5-9.4 11.5s-9.4-6.2-9.4-11.5c0-5.1 4.2-5.3 9.4-5.3s9.4.1 9.4 5.3z" opacity=".16" fill="#748fa9"/>
  <path class="st25" d="M468.4 387.6c0-6.1 5-23.8 11.1-23.8s11.1 17.7 11.1 23.8c0 6.1-5 6.2-11.1 6.2-6.2 0-11.1-.2-11.1-6.2z"/>
  <path class="st21" d="M485 390.2c-1.3 0-2.4 1.1-2.4 2.4 0 .4 0 .6.2.9 1.8 0 3.3-.4 4.6-.9-.1-1.3-1.2-2.4-2.4-2.4zM473.7 390.2c-1.3 0-2.4 1.1-2.4 2.4 1.3.6 2.8.7 4.6.9.2-.2.2-.6.2-.9.1-1.3-1.1-2.4-2.4-2.4z"/>
  <circle class="st29" cx="479.5" cy="383.6" r="2.8"/>
  <path d="M452.5 405.5s3.1 7.9 27 7.9c25.5 0 26.8-8.5 26.8-8.5" fill="none" stroke="#174772" stroke-width=".902" stroke-miterlimit="10"/>
  <circle class="st9" cx="505.8" cy="405.3" r="2.2"/>
  <circle class="st9" cx="452.9" cy="405.8" r="2.2"/>
  <path class="st73" d="M511 362.2s11.5-1.8 18.8-.9"/>
  <path class="st9" d="M512.8 361.5s1.5-3.7 5.3-4.4c5.5-.9 7.7 3.7 7.7 3.7s-9.7.1-13 .7z"/>
  <path class="st73" d="M447.7 362.2s-11.5-1.8-18.8-.9"/>
  <path class="st9" d="M446 361.5s-1.5-3.7-5.3-4.4c-5.5-.9-7.7 3.7-7.7 3.7s9.4.1 13 .7z"/>
  <path class="st7" d="M423.4 341.7c4-1.3 10.9-9.4 24.9-5 2.2.7 5-.2 5.7-2.4.7-2.2-1.1-5-3.3-5.5-18.6-5.9-30.1 7.7-30.4 8.5-1.6 3.7 1.8 4.6 3.1 4.4zM536.7 341.7c-4-1.3-10.9-9.4-24.9-5-2.2.7-5-.2-5.7-2.4s1.1-5 3.3-5.5c18.6-5.9 30.1 7.7 30.4 8.5 1.7 3.7-1.8 4.6-3.1 4.4z"/>
  <circle class="st16" cx="472.4" cy="361.3" r="1.7"/>
  <circle class="st16" cx="486.1" cy="360.4" r="2"/>
  <circle class="st16" cx="469.6" cy="355.8" r="2"/>
  <circle class="st16" cx="478.2" cy="356.1" r="1.1"/>
  <circle class="st16" cx="483.5" cy="352.8" r="1.1"/>
  <circle class="st16" cx="474.4" cy="351" r="1.1"/>
  <circle class="st16" cx="521.9" cy="372.6" r="5.5"/>
  <circle class="st16" cx="437.1" cy="372.6" r="5.5"/>
  <path class="st16" d="M480 417.3c-2.9 0-5.9 0-8.7-.2 1.1 3.7 4.6 6.2 8.7 6.2 4 0 7.3-2.6 8.7-6.2-3 0-5.8.2-8.7.2zM525.1 361.3c2.6 0 5.3 0 7.7.2 0-5.3-4.4-11.3-10-11.3-5.5 0-10 5.9-10 11.3v.2c4.1-.2 8.2-.4 12.3-.4z"/>
  <path class="st14" d="M464.1 500.2h31.2v61.2h-31.2z"/>
  <path class="st7" d="M520.8 489.7l62.2 49.8-96.6 70.5V495.2zM437.3 489.7l-62.4 49.8 96.6 70.5V495.2z"/>
  <path class="st61" d="M333.7 560.3c-.4-4 2.8-7.3 6.8-7.3l25.7.2c3.1 0 5.9 2.4 6.4 5.7.6 4-2.6 7.5-6.4 7.5l-25.5.4c-3.7-.3-6.8-3.1-7-6.5zM330.4 578.5c-.4-4 2.8-7.3 6.8-7.3l25.7.2c3.1 0 5.9 2.4 6.4 5.7.6 4-2.6 7.5-6.4 7.5l-25.5.4c-3.7-.1-6.6-2.8-7-6.5zM330.1 609.2c-.4-4 2.8-7.3 6.8-7.3l25.7.2c3.1 0 5.9 2.4 6.4 5.7.6 4-2.6 7.5-6.4 7.5l-25.5.4c-3.9-.2-6.8-2.8-7-6.5zM329.5 594.6c-.4-4 2.8-7.3 6.8-7.3l25.7.2c3.1 0 5.9 2.4 6.4 5.7.6 4-2.6 7.5-6.4 7.5l-25.5.4c-3.7-.3-6.6-2.9-7-6.5zM625.2 565.8c.4-3.7-2.8-7-6.4-7l-24.1.2c-3.1 0-5.5 2.4-6.1 5.3-.6 3.7 2.4 7.2 6.1 7.2l23.9.4c3.4-.1 6.4-2.6 6.6-6.1zM628.3 583.1c.4-3.7-2.8-7-6.4-7l-24.1.2c-3.1 0-5.5 2.4-6.1 5.3-.6 3.7 2.4 7.2 6.1 7.2l23.9.4c3.5 0 6.2-2.6 6.6-6.1zM628.7 612.2c.4-3.7-2.8-7-6.4-7l-24.1.2c-3.1 0-5.5 2.4-6.1 5.3-.6 3.7 2.4 7.2 6.1 7.2l23.9.4c3.4-.3 6.4-2.8 6.6-6.1zM629.2 598.2c.4-3.7-2.8-7-6.4-7l-24.1.2c-3.1 0-5.5 2.4-6.1 5.3-.6 3.7 2.4 7.2 6.1 7.2l23.9.4c3.5-.2 6.2-2.8 6.6-6.1z"/>
  <path class="st4" d="M396.7 651.1v23.7l10.9-6.1 10.7 10.6v-28.2z"/>
  <path class="st33" d="M399.7 665l21 2.3v-13.6h-21z"/>
  <path class="st20" d="M473.3 517.9l-90.8-30.4v18.8l91.4 18.2z"/>
  <path class="st14" d="M352.4 508.3l13.6-4.2 112 13.1-.2 11.6-73.7-1.6z"/>
  <path class="st20" d="M483.1 518.1l94.4-30.6v18.8l-91.4 18.2z"/>
  <path class="st14" d="M603 508.3l-10.3-5.2-115.1 15v10.7l73.7-1.6z"/>
  <path class="st9" d="M465.6 669.7l-118.2-13.3V505.5l118.2 13.3zM492.9 669.7l118.2-13.3V505.5l-118.2 13.3z"/>
  <path class="st9" d="M347.4 656.4l118 13.3V518.8l-118-13.3v150.9zm145.5-137.6v150.8l118-13.3V505.5l-118 13.3z"/>
  <path class="st4" d="M610.8 628.8l-21.5 29.3c-.4.6 0 1.3.7 1.3l22.1-2.4.2-27.7c-.1-.9-1.2-1.1-1.5-.5zM348.3 629.1l21.5 29.3c.4.6 0 1.3-.7 1.3l-22.1-2.4-.2-27.7c.1-.8 1.2-1.2 1.5-.5z"/>
  <path class="st14" d="M556.2 612.7c-.7 0-1.5-.4-2-.7L536 595.4c-.6-.6-.9-1.3-.9-2 0-.9.4-1.8.9-2.6l18.1-19.7c.7-.7 1.7-1.1 2.6-1.1.7 0 1.5.4 2 .7l18.2 16.6c.6.6.9 1.3.9 2 0 .9-.4 1.8-.9 2.6l-18.1 19.7c-.7.8-1.6 1.1-2.6 1.1z"/>
  <path class="st14" d="M556.6 570.4c.6 0 1.1.2 1.7.6l18.2 16.6c1.1.9 1.1 2.6 0 3.9l-18.1 19.7c-.6.6-1.3.9-2.2.9-.6 0-1.1-.2-1.7-.6L536.3 595c-1.1-.9-1.1-2.6 0-3.9l18.1-19.7c.7-.9 1.4-1 2.2-1m-.4 33.7c.6 0 1.3-.2 1.8-.6l-4-.6.2.2c.5.8 1.3 1 2 1m.4-35c-1.1 0-2.2.6-2.9 1.3l-18.1 19.7c-.7.7-1.1 1.8-1.1 2.9 0 .9.4 1.8 1.1 2.6l18.2 16.6c.7.6 1.5.9 2.4.9 1.1 0 2.2-.6 2.9-1.3l18.1-19.7c.7-.7 1.1-1.8 1.1-2.9 0-.9-.4-1.8-1.1-2.6L559 570c-.5-.6-1.4-.9-2.4-.9z"/>
  <path class="st35" d="M347.4 509.9l118.2 13.3V521l-118.2-13.3zM492.9 521v2.2l118.2-13.3v-2.2z"/>
  <path class="st36" d="M575.1 587.7l-17-15.3c-.9-.9-2.6-.7-3.5.4l-3.5 3.9 4.4 4c1.1-.4 2.2-.4 3.1.4.7.7 1.1 1.8.7 2.9l4.2 3.9c1.1-.4 2.2-.4 3.1.4 1.1 1.1 1.1 2.9 0 4.2s-2.9 1.5-4.2.4c-.9-.7-1.1-2-.6-3.1l-4-3.7v10.5c.4.2.6.4.7.6 1.1 1.1 1.1 2.9 0 4.2s-2.9 1.5-4.2.4c-1.1-1.1-1.1-2.9 0-4.2.4-.4.6-.6.9-.7v-10.7c-.4-.2-.7-.4-.9-.6-.9-.7-1.1-2-.6-3.1l-4.4-4-11.4 12.5c-.9 1.1-.9 2.6 0 3.5l17 15.3c.9.9 2.6.7 3.5-.4l16.8-18.2c.8-.9.8-2.6-.1-3.5"/>
  <path class="st21" d="M492.9 518.8v2.4l118.2-13.3v-2.4zM347.4 507.9l118.2 13.3v-2.4l-118.2-13.3z"/>
  <path class="st37" d="M496.8 519.5c-.2-.6-.4-.9-.9-1.5-.6-.6-1.3-1.1-2.2-1.3-3.3-1.3-8.7-2.2-14.8-2.2s-11.5.9-14.8 2.2c-.9.2-1.7.7-2.2 1.3-.6.4-.9.9-.9 1.5-.2.6-.4 1.3-.4 1.8V667.7c0 .7.2 1.3.4 1.8.2.6.4.9.9 1.5s1.3 1.1 2.2 1.3c3.3 1.3 8.7 2.2 14.8 2.2s11.5-.9 14.8-2.2c.9-.2 1.7-.7 2.2-1.3.6-.4.9-.9.9-1.5.2-.6.4-1.3.4-1.8V521.4c0-.6-.2-1.3-.4-1.9z"/>
  <path class="st38" d="M496.2 519.5c-.2-.6-.4-.9-.9-1.5-.6-.6-1.3-1.1-2.2-1.3-3.3-1.3-8.7-2.2-14.8-2.2 3.9 0 7.2.9 9.3 2.2.6.2.9.7 1.3 1.3.4.4.6.9.6 1.5.2.6.2 1.3.2 1.8V667.7c0 .7-.2 1.3-.2 1.8s-.2.9-.6 1.5-.9 1.1-1.3 1.3c-2 1.3-5.3 2.2-9.3 2.2 6.1 0 11.5-.9 14.8-2.2.9-.2 1.7-.7 2.2-1.3.6-.4.9-.9.9-1.5.2-.6.4-1.3.4-1.8V521.4c0-.6-.2-1.3-.4-1.9z"/>
  <path class="st38" d="M461.4 518.1c-.6.4-.9.9-.9 1.5-.2.6-.4 1.3-.4 1.8V667.8c0 .7.2 1.3.4 1.8s.4.9.9 1.5c.6.6 1.3 1.1 2.2 1.3 3.3 1.3 8.7 2.2 14.8 2.2-3.9 0-7.2-.9-9.3-2.2-.6-.2-.9-.7-1.3-1.3-.4-.4-.6-.9-.6-1.5-.2-.6-.2-1.3-.2-1.8V521.4c0-.7.2-1.3.2-1.8 0-.6.2-.9.6-1.5s.9-1.1 1.3-1.3c2-1.3 5.3-2.2 9.3-2.2-6.1 0-11.5.9-14.8 2.2-.7.4-1.5.7-2.2 1.3z"/>
  <path class="st11" d="M626.3 564.7c-.7-3.7-4.6-5.9-8.1-4.8l-23 7c-2.9.9-4.6 3.9-4.2 6.8.6 3.7 4.2 6.1 7.9 5l23-6.6c3.3-1 5.1-4.3 4.4-7.4z"/>
  <path class="st39" d="M612.1 568.5c-.7-2.9-3.3-5-6.2-5l-10.9 3.3c-2.9.9-4.6 3.9-4.2 6.8.6 3.5 3.7 5.7 7.2 5.1l9.6-2.8c3.4-.8 5.2-4.1 4.5-7.4z"/>
  <path class="st11" d="M629.8 597.9c-.6-3.7-4-6.2-7.7-5.3l-23.6 5.1c-2.9.7-5 3.5-4.8 6.4.2 3.7 3.9 6.4 7.5 5.7l23.4-4.8c3.3-.7 5.5-3.8 5.2-7.1z"/>
  <path class="st39" d="M616.8 600.1c-.4-2.8-2.4-4.8-5-5.3l-13.5 2.9c-2.9.7-5 3.5-4.8 6.4.2 2.9 2.4 5.1 5.1 5.7l12.9-2.6c3.7-.6 5.9-3.8 5.3-7.1z"/>
  <path class="st11" d="M628.5 612.2c-.4-3.1-3.3-5.1-6.4-4.4l-19.3 4.2c-2.4.6-4 2.8-3.9 5.3.2 3.1 3.1 5.3 6.2 4.6l19.3-4c2.6-.4 4.4-3 4.1-5.7z"/>
  <path class="st11" d="M628.5 612.2c-.4-3.1-3.3-5.1-6.4-4.4l-19.3 4.2c-2.4.6-4 2.8-3.9 5.3.2 3.1 3.1 5.3 6.2 4.6l19.3-4c2.6-.4 4.4-3 4.1-5.7z"/>
  <path class="st39" d="M618.1 614.4c-.4-2.8-2.9-4.8-5.7-4.6l-10 2.2c-2.4.6-4 2.8-3.9 5.3.2 3.1 3.1 5.3 6.2 4.6l10.4-2c2.1-.9 3.4-3.1 3-5.5z"/>
  <path class="st11" d="M628.8 583.3c-.6-3.7-4-6.2-7.7-5.3l-27.9 5.9c-2.9.7-5 3.5-4.8 6.4.2 3.7 3.9 6.4 7.5 5.7l27.9-5.5c3.4-.8 5.6-3.9 5-7.2z"/>
  <path class="st39" d="M611.1 586.8c-.4-3.1-3.1-5.5-6.1-5.5l-11.8 2.4c-2.9.7-5 3.5-4.8 6.4.2 3.7 3.9 6.4 7.5 5.7l10.9-2.2c2.9-.9 4.7-3.7 4.3-6.8z"/>
  <circle class="st14" cx="598" cy="572.6" r="3.7"/>
  <circle class="st14" cx="601" cy="604.1" r="3.7"/>
  <circle class="st14" cx="604.1" cy="616.9" r="3.7"/>
  <circle class="st14" cx="595.8" cy="589.3" r="3.7"/>
  <path class="st11" d="M332.5 558.9c.9-3.9 4.8-6.2 8.7-5.1l24.6 7.3c3.1.9 5 4 4.4 7.2-.6 4-4.6 6.4-8.5 5.3l-24.3-7c-3.7-.6-5.7-4.1-4.9-7.7z"/>
  <path class="st39" d="M351.8 564.3c.7-3.1 3.5-5.3 6.6-5.3l11.5 3.5c3.1.9 5 4 4.4 7.2-.6 3.7-4 6.1-7.5 5.5l-10.4-2.9c-3.3-1-5.3-4.5-4.6-8z"/>
  <path class="st11" d="M328.9 594.2c.6-3.9 4.4-6.6 8.3-5.7l24.9 5.5c3.1.7 5.3 3.7 5 6.8-.4 4-4 6.8-7.9 5.9l-24.9-5.1c-3.5-.6-6-3.9-5.4-7.4z"/>
  <path class="st39" d="M342.5 596.6c.4-2.9 2.6-5.1 5.1-5.7L362 594c3.1.7 5.3 3.7 5 6.8-.2 3.1-2.6 5.5-5.5 6.1l-13.7-2.8c-3.4-.7-5.8-4-5.3-7.5z"/>
  <path class="st11" d="M330.3 609.2c.4-3.3 3.5-5.3 6.8-4.8l20.6 4.6c2.6.6 4.4 2.9 4.2 5.7-.2 3.3-3.3 5.7-6.6 5l-20.4-4.2c-3-.6-5-3.3-4.6-6.3z"/>
  <path class="st11" d="M330.3 609.2c.4-3.3 3.5-5.3 6.8-4.8l20.6 4.6c2.6.6 4.4 2.9 4.2 5.7-.2 3.3-3.3 5.7-6.6 5l-20.4-4.2c-3-.6-5-3.3-4.6-6.3z"/>
  <path class="st39" d="M341.1 611.6c.4-2.9 3.1-5.1 6.1-4.8l10.5 2.4c2.6.6 4.4 2.9 4.2 5.7-.2 3.3-3.3 5.7-6.6 5l-10.9-2.2c-2.2-1.1-3.7-3.5-3.3-6.1z"/>
  <path class="st11" d="M329.9 578.7c.6-3.9 4.4-6.6 8.3-5.7l29.5 6.2c3.1.7 5.3 3.7 5 6.8-.4 4-4 6.8-7.9 5.9l-29.5-5.7c-3.6-.7-6.1-4-5.4-7.5z"/>
  <path class="st39" d="M348.7 582.4c.6-3.3 3.3-5.7 6.4-5.9l12.6 2.6c3.1.7 5.3 3.7 5 6.8-.4 4-4 6.8-7.9 5.9l-11.6-2.2c-3-1-5.1-3.9-4.5-7.2z"/>
  <circle class="st14" cx="365.5" cy="568.7" r="4"/>
  <circle class="st14" cx="359.1" cy="600.8" r="4"/>
  <circle class="st14" cx="356" cy="614.6" r="4"/>
  <circle class="st14" cx="364.9" cy="585.1" r="4"/>
  <path class="st4" d="M713.9 80.4c3.4-2.4 6.3-4.5 6.3-7.7 0-3.4-2.5-6.2-8.5-6.2-5.4 0-10 2.7-13.4 6.7l-8.8-9.9c5.8-6.7 14.5-10.5 23.8-10.5 14 0 22.6 7.1 22.6 17.2 0 9-5.8 13.4-11 17-3.8 2.8-7.2 5.2-7.2 9.2 0 1.7.9 3.6 2 4.6l-11.9 3.5c-2.3-2.5-3.6-5.8-3.6-9.6.2-7.5 5.4-11.1 9.7-14.3zm-.7 29.6c4.8 0 8.8 4 8.8 8.8s-4 8.8-8.8 8.8-8.8-4-8.8-8.8 4-8.8 8.8-8.8zM260.7 94.2c3.4-2.4 6.3-4.5 6.3-7.7 0-3.4-2.5-6.2-8.5-6.2-5.4 0-10 2.7-13.4 6.7l-8.8-9.9c5.8-6.7 14.5-10.5 23.8-10.5 14 0 22.6 7.1 22.6 17.2 0 9-5.8 13.4-11 17-3.8 2.8-7.2 5.2-7.2 9.2 0 1.7.9 3.6 2 4.6l-11.9 3.5c-2.3-2.5-3.6-5.8-3.6-9.6.1-7.6 5.3-11.2 9.7-14.3zm-.8 29.5c4.8 0 8.8 4 8.8 8.8s-4 8.8-8.8 8.8c-4.8 0-8.8-4-8.8-8.8 0-4.7 4-8.8 8.8-8.8z"/>
  <g>
    <path class="st4" d="M481.7 37.5c4.3-3 8-5.7 8-9.8 0-4.3-3.2-7.9-10.8-7.9-6.9 0-12.7 3.4-17 8.5l-11.2-12.5C458 7.3 469 2.4 480.9 2.4c17.8 0 28.7 9 28.7 21.8 0 11.4-7.3 17-13.9 21.5-4.8 3.6-9.1 6.6-9.1 11.7 0 2.2 1.1 4.5 2.5 5.8l-15 4.4c-2.9-3.2-4.5-7.3-4.5-12.1 0-9.4 6.6-14 12.1-18zm-.9 37.5c6.1 0 11.2 5.1 11.2 11.2s-5.1 11.2-11.2 11.2-11.2-5.1-11.2-11.2S474.7 75 480.8 75z"/>
  </g>
  <g>
    <path class="st0" d="M534.7 139.5v77.1"/>
    <circle class="st4" cx="534.7" cy="225.3" r="7"/>
    <path class="st4" d="M543.2 259.9h-17v-19.7c0-4.5 4-8.5 8.5-8.5s8.5 4 8.5 8.5v19.7zM181 332.2h-17v-19.7c0-4.5 4-8.5 8.5-8.5s8.5 4 8.5 8.5v19.7z"/>
  </g>
  <g>
    <path class="st0" d="M172.6 213.8v77.1"/>
    <circle class="st4" cx="172.6" cy="299.6" r="7"/>
  </g>
</svg>